<?xml version="1.0" encoding="UTF-8" standalone="no"?>
<svg
   version="1.0"
   width="762.78992mm"
   height="210.80847mm"
   viewBox="0 0 2162.2392 597.56732"
   preserveAspectRatio="xMidYMid"
   id="svg2"
   sodipodi:docname="text-logo-light-embedded-font.svg"
   inkscape:version="1.4.2 (ebf0e940, 2025-05-08)"
   xmlns:inkscape="http://www.inkscape.org/namespaces/inkscape"
   xmlns:sodipodi="http://sodipodi.sourceforge.net/DTD/sodipodi-0.dtd"
   xmlns="http://www.w3.org/2000/svg"
   xmlns:svg="http://www.w3.org/2000/svg">
  <defs
     id="defs2" />
  <sodipodi:namedview
     id="namedview2"
     pagecolor="#ffffff"
     bordercolor="#000000"
     borderopacity="0.25"
     inkscape:showpageshadow="2"
     inkscape:pageopacity="0.0"
     inkscape:pagecheckerboard="0"
     inkscape:deskcolor="#d1d1d1"
     inkscape:document-units="pt"
     inkscape:zoom="0.46540358"
     inkscape:cx="948.63902"
     inkscape:cy="196.60356"
     inkscape:window-width="2384"
     inkscape:window-height="1186"
     inkscape:window-x="1101"
     inkscape:window-y="452"
     inkscape:window-maximized="0"
     inkscape:current-layer="svg2"
     showguides="true">
    <sodipodi:guide
       position="-67.307696,302.46655"
       orientation="0,1"
       id="guide1"
       inkscape:locked="false"
       inkscape:label=""
       inkscape:color="rgb(0,134,229)" />
    <sodipodi:guide
       position="597.54334,752.83939"
       orientation="-1,0"
       id="guide3"
       inkscape:locked="false"
       inkscape:label=""
       inkscape:color="rgb(0,134,229)" />
    <sodipodi:guide
       position="298.77167,676.24513"
       orientation="-1,0"
       id="guide4"
       inkscape:locked="false"
       inkscape:label=""
       inkscape:color="rgb(0,134,229)" />
  </sodipodi:namedview>
  <g
     id="rocket-with-trail">
    <g
       transform="matrix(0.1,0,0,-0.1,-96.950556,694.56731)"
       fill="#000000"
       stroke="none"
       id="trail"
       style="fill:#cdd1ff;fill-opacity:1">
      <path
         d="m 3665,6903 c -133,-11 -255,-27 -360,-48 C 2350,6664 1552,5994 1175,5068 875,4327 905,3414 1255,2683 1617,1927 2265,1359 3055,1107 c 298,-95 574,-137 908,-137 626,0 1213,196 1722,574 201,150 410,349 556,531 161,201 346,515 450,765 21,50 21,51 -59,-77 -244,-394 -634,-779 -1032,-1019 -120,-72 -365,-191 -494,-238 -195,-73 -443,-132 -661,-158 -157,-18 -521,-15 -674,6 -739,100 -1405,499 -1830,1094 -249,349 -393,706 -468,1157 -25,154 -25,591 0,749 93,582 343,1071 751,1469 353,345 809,576 1311,666 103,18 292,37 270,26 -5,-2 -80,-22 -167,-44 -371,-95 -685,-250 -983,-485 -667,-525 -1054,-1368 -994,-2169 6,-83 15,-159 20,-167 6,-11 9,-7 9,15 1,47 27,147 66,253 48,129 57,136 49,37 -4,-44 -2,-145 4,-225 56,-725 444,-1380 1056,-1783 412,-271 878,-401 1375,-384 204,7 337,25 509,68 309,77 537,181 816,371 152,103 185,138 51,53 -386,-244 -756,-367 -1189,-395 -314,-19 -669,35 -955,146 -232,90 -502,252 -683,410 -403,351 -653,793 -755,1334 -25,133 -30,514 -10,665 67,486 274,908 619,1262 143,147 278,257 442,361 127,80 171,103 315,165 252,107 424,148 790,185 l 75,8 -139,8 c -287,17 -563,-21 -832,-115 -192,-66 -454,-210 -619,-338 -87,-68 -97,-71 -40,-12 177,186 489,385 760,486 262,98 498,139 795,139 216,0 315,-10 558,-60 67,-14 126,-23 131,-19 5,3 12,23 16,45 4,22 7,42 8,46 1,3 -101,32 -228,64 l -230,59 h 85 c 74,0 219,-14 357,-35 42,-6 42,-6 52,32 25,98 31,87 -56,106 -99,23 -264,52 -418,75 -171,25 -629,25 -800,0 -359,-53 -735,-180 -995,-334 -149,-88 -148,-88 -105,-48 62,57 237,169 375,239 277,142 554,229 875,278 61,9 191,13 399,13 338,0 341,2 81,45 -209,34 -460,47 -630,33 z"
         id="path1"
         style="fill:#cdd1ff;fill-opacity:1" />
    </g>
    <g
       transform="matrix(0.1,0,0,-0.1,-103.68133,690)"
       fill="#ffffff"
       stroke="none"
       id="rocket">
      <path
         d="m 5210,6801 c 83,-140 122,-221 116,-238 -5,-11 -20,-14 -65,-11 l -59,3 -16,-79 c -9,-44 -14,-81 -12,-84 2,-2 43,-12 89,-22 154,-34 417,-135 417,-161 0,-24 -233,7 -455,60 -44,11 -80,19 -81,18 0,-1 -12,-42 -26,-92 l -25,-89 59,-28 c 32,-15 58,-31 58,-36 0,-10 -129,-112 -234,-183 l -83,-56 116,-27 c 255,-58 232,-57 352,-15 59,21 141,52 183,70 l 75,32 148,-42 c 182,-51 253,-66 413,-87 213,-28 458,-10 655,48 86,25 205,77 205,90 0,5 6,6 13,1 28,-17 -64,89 -162,187 -109,109 -237,202 -365,267 -167,84 -443,167 -650,194 l -96,13 -47,56 c -26,30 -87,96 -136,146 -76,80 -93,92 -130,98 -23,4 -102,20 -175,36 -73,17 -135,30 -137,30 -2,0 23,-45 55,-99 z m 1268,-625 c 132,-69 110,-253 -36,-297 -137,-41 -258,134 -170,246 48,61 142,84 206,51 z"
         id="path2" />
    </g>
  </g>
  <g
     fill="#ffffff"
     stroke="none"
     id="text"
     style="fill:#ffffff;fill-opacity:1">
    <path
       d="m 299.23829,200.23762 q 20.16,0 37.8,7.92 18,7.92 30.96,22.32 l -24.48,24.48 q -15.84,-21.6 -44.28,-21.6 -25.2,0 -41.04,17.28 -15.84,17.28 -15.84,43.2 0,25.92 15.84,43.2 15.84,17.28 41.04,17.28 28.44,0 44.28,-21.6 l 24.48,24.48 q -12.96,14.4 -30.96,22.32 -17.64,7.92 -37.8,7.92 -38.52,0 -66.24,-27.36 -27.36,-27.72 -27.36,-66.24 0,-38.52 27.36,-65.88 27.72,-27.72 66.24,-27.72 z m 178.55994,-0.36 v 41.4 q -25.56,0 -41.76,14.4 -15.84,14.4 -15.84,37.8 v 90 h -36 v -90 q 0,-43.2 25.56,-68.4 25.92,-25.2 68.04,-25.2 z m 108.00051,32.76 q -25.2,0 -41.4,17.64 -16.2,17.64 -16.2,43.56 0,25.92 16.2,43.56 16.2,17.64 41.4,17.64 25.2,0 42.12,-17.64 16.92,-17.64 16.92,-43.2 0,-25.92 -16.92,-43.56 -16.92,-18 -42.12,-18 z m 0,-32.4 q 18,0 34.2,5.76 16.56,5.4 29.88,16.2 13.68,10.8 21.6,29.52 7.92,18.36 7.92,42.12 v 90 h -36 v -23.04 q -0.72,1.08 -2.88,3.24 -1.8,1.8 -7.2,6.48 -5.4,4.32 -11.88,7.92 -6.48,3.6 -16.56,6.48 -9.72,2.88 -20.16,2.88 0,0 -0.36,0 -41.76,0 -67.68,-27.36 -25.56,-27.72 -25.56,-66.96 0,-17.28 5.76,-33.48 5.76,-16.56 16.92,-29.88 11.16,-13.68 29.52,-21.6 18.72,-8.28 41.76,-8.28 0.36,0 0.72,0 z m 219.60012,-90 v 32.4 q -25.2,0 -41.4,17.64 -16.2,17.64 -16.2,43.56 h 48.96 v 30.6 h -48.96 v 149.4 h -36 v -180 q 0,-38.52 27.36,-65.88 27.72,-27.72 66.24,-27.72 z m 22.67983,21.96 h 36 v 72 h 48.96 v 30.6 h -48.96 v 59.4 q 0,25.56 15.84,41.4 16.2,15.48 41.76,15.48 v 33.12 q -38.88,0 -66.24,-25.56 -27.36,-25.92 -27.36,-64.44 z m 227.51991,118.44 q -15.48,-17.28 -40.68,-17.28 -25.20001,0 -41.04001,17.28 -15.84,17.28 -15.84,43.2 0,25.92 15.84,43.2 15.84,17.28 41.04001,17.28 25.2,0 40.68,-17.28 15.48,-17.28 15.48,-43.2 0,-25.92 -15.48,-43.2 z m -106.92001,-22.68 q 27.72,-27.72 66.24001,-27.72 38.52,0 65.88,27.72 27.72,27.36 27.72,65.88 0,38.52 -27.72,66.24 -27.36,27.36 -65.88,27.36 -38.52001,0 -66.24001,-27.36 -27.36,-27.72 -27.36,-66.24 0,-38.52 27.36,-65.88 z m 270.35961,-24.12 v 31.68 h -36.72 q -27,0 -27,17.28 0,1.08 0,2.16 0.72,5.4 8.28,11.52 7.56,5.76 17.64,11.52 10.44,5.76 20.88,12.96 10.44,7.2 17.28,18.36 7.2,10.8 7.2,24.12 0,3.24 -0.36,7.2 -6.12,43.2 -60.48,43.2 h -40.32 v -32.04 h 41.4 q 0.72,0 1.08,0 11.52,0 18.72,-4.68 7.56,-5.04 7.56,-12.6 0,-1.44 -0.36,-3.24 -1.44,-6.12 -9.36,-11.88 -7.92,-5.76 -18,-11.16 -10.08,-5.4 -20.16,-11.88 -9.72,-6.84 -16.56,-17.28 -6.84,-10.44 -6.84,-23.76 0,-24.12 17.28,-37.8 17.64,-13.68 42.12,-13.68 z m 120.9601,28.8 q -25.2,0 -42.12,18 -16.92,17.64 -16.92,43.56 0,25.56 16.92,43.2 16.92,17.64 42.12,17.64 25.2,0 41.4,-17.64 16.2,-17.64 16.2,-43.56 0,-25.92 -16.2,-43.56 -16.2,-17.64 -41.4,-17.64 z m 0,-32.4 q 42.12,0 67.68,26.28 25.92,25.92 25.92,67.32 0,39.96 -23.4,66.96 -23.4,27 -62.64,27 -42.12,0 -62.28,-22.32 l -2.88,-3.6 v 112.32 h -36 v -180.36 q 0,-23.76 7.92,-42.12 8.28,-18.72 21.96,-29.52 13.68,-11.16 29.88,-16.56 16.2,-5.4 33.84,-5.4 z m 227.1603,0 q 21.24,0.72 36.36,11.16 15.48,10.44 21.96,24.84 6.48,14.4 6.48,30.6 v 117 h -36 v -106.56 q 0,-20.16 -10.08,-34.2 -9.72,-14.04 -32.76,-15.84 -23.76,0 -39.24,14.76 -15.48,14.76 -15.48,43.56 v 98.28 h -36 v -270 h 36 v 110.52 q 23.04,-24.12 62.64,-24.12 2.88,0 6.12,0 z m 186.1196,34.92 q -20.16,0 -34.56,10.44 -14.4,10.08 -19.8,28.08 h 107.64 q -5.4,-18 -19.44,-28.08 -13.68,-10.44 -33.84,-10.44 z m -56.52,68.04 q 3.24,21.96 18.72,36.72 15.48,14.4 37.8,14.4 28.44,0 44.28,-21.6 l 24.48,24.48 q -12.96,14.4 -30.96,22.32 -17.64,7.92 -37.8,7.92 -38.52,0 -65.52,-27.36 -27,-27.36 -27,-66.24 0,-38.88 27,-66.24 27,-27.36 65.52,-27.36 38.52,0 64.8,27.36 26.64,27.36 26.64,66.24 0,3.6 -0.36,9.36 -29.52,-0.36 -62.28,-0.36 -31.32,0 -85.32,0.36 z m 270.3598,-103.32 v 41.4 q -25.56,0 -41.76,14.4 -15.84,14.4 -15.84,37.8 v 90 h -36 v -90 q 0,-43.2 25.56,-68.4 25.92,-25.2 68.04,-25.2 z m 103.3204,35.28 q -20.16,0 -34.56,10.44 -14.4,10.08 -19.8,28.08 h 107.64 q -5.4,-18 -19.44,-28.08 -13.68,-10.44 -33.84,-10.44 z m -56.52,68.04 q 3.24,21.96 18.72,36.72 15.48,14.4 37.8,14.4 28.44,0 44.28,-21.6 l 24.48,24.48 q -12.96,14.4 -30.96,22.32 -17.64,7.92 -37.8,7.92 -38.52,0 -65.52,-27.36 -27,-27.36 -27,-66.24 0,-38.88 27,-66.24 27,-27.36 65.52,-27.36 38.52,0 64.8,27.36 26.64,27.36 26.64,66.24 0,3.6 -0.36,9.36 -29.52,-0.36 -62.28,-0.36 -31.32,0 -85.32,0.36 z"
       id="craftosphere"
       style="font-size:360px;font-family:Astonpoliz;-inkscape-font-specification:Astonpoliz;stroke-width:1.2"
       aria-label="craftosphere" />
  </g>
</svg>
