<?xml version="1.0" encoding="UTF-8" standalone="no"?>
<!-- Created with Inkscape (http://www.inkscape.org/) -->

<svg
   width="521.54681mm"
   height="104.19969mm"
   viewBox="0 0 521.54681 104.19969"
   version="1.1"
   id="svg1"
   xml:space="preserve"
   inkscape:version="1.4.3 (0d15f75, 2025-12-25)"
   sodipodi:docname="banner.svg"
   inkscape:export-filename="banner.png"
   inkscape:export-xdpi="53.571415"
   inkscape:export-ydpi="53.571415"
   xmlns:inkscape="http://www.inkscape.org/namespaces/inkscape"
   xmlns:sodipodi="http://sodipodi.sourceforge.net/DTD/sodipodi-0.dtd"
   xmlns="http://www.w3.org/2000/svg"
   xmlns:svg="http://www.w3.org/2000/svg"><sodipodi:namedview
     id="namedview1"
     pagecolor="#ffffff"
     bordercolor="#000000"
     borderopacity="0.25"
     inkscape:showpageshadow="2"
     inkscape:pageopacity="0.0"
     inkscape:pagecheckerboard="0"
     inkscape:deskcolor="#d1d1d1"
     inkscape:document-units="mm"
     inkscape:zoom="0.47419849"
     inkscape:cx="743.35959"
     inkscape:cy="30.577912"
     inkscape:window-width="2139"
     inkscape:window-height="1286"
     inkscape:window-x="1157"
     inkscape:window-y="548"
     inkscape:window-maximized="0"
     inkscape:current-layer="layer1" /><defs
     id="defs1" /><g
     inkscape:label="Layer 1"
     inkscape:groupmode="layer"
     id="layer1"
     transform="translate(-137.47827,-89.83285)"><circle
       style="fill:#f59e0b;fill-opacity:1;stroke-width:0.946431;stroke-linecap:square;stroke-miterlimit:8"
       id="path1"
       cx="33.690121"
       cy="217.3018"
       r="30.754822"
       transform="matrix(0.70710792,-0.70710564,0.70710792,0.70710564,0,0)" /><ellipse
       style="fill:none;fill-opacity:0.537255;stroke:#0d9488;stroke-width:5.00001;stroke-linecap:square;stroke-miterlimit:8;stroke-dasharray:none;stroke-opacity:1"
       id="path2"
       cx="-129.83286"
       cy="177.47839"
       transform="rotate(-90)"
       rx="37.5"
       ry="37.500118" /><g
       id="g2"
       transform="matrix(0.70710904,-0.70710675,0.70710904,0.70710675,-8.7316596,175.65121)"><rect
         style="opacity:1;fill:#0d9488;fill-opacity:1;stroke:none;stroke-width:4.99999;stroke-linecap:square;stroke-miterlimit:8;stroke-dasharray:none;stroke-opacity:1"
         id="rect2"
         width="17.5"
         height="35"
         x="155.32126"
         y="147.77763"
         rx="2.5"
         ry="2.5" /><rect
         style="fill:#0d9488;fill-opacity:1;stroke:none;stroke-width:4.99999;stroke-linecap:square;stroke-miterlimit:8;stroke-dasharray:none;stroke-opacity:1"
         id="rect2-6"
         width="7.5"
         height="35"
         x="160.32126"
         y="136.18726"
         rx="2.5"
         ry="2.5" /></g><path
       style="font-weight:bold;font-size:38.8057px;line-height:1;font-family:Arial;-inkscape-font-specification:'Arial Bold';text-align:center;letter-spacing:0px;word-spacing:0px;text-anchor:middle;fill:#ffffff;stroke-width:1;stroke-linecap:square;stroke-miterlimit:8"
       d="m 158.19845,132.1068 v -4.54754 q 1.38321,-0.0758 2.08429,-0.41686 0.70108,-0.34107 1.21267,-1.13689 0.5116,-0.81476 0.70108,-2.02744 0.15159,-0.90951 0.15159,-3.16433 0,-3.67594 0.34106,-5.11599 0.34107,-1.459 1.23163,-2.33062 0.89056,-0.89056 2.59589,-1.40216 1.15583,-0.34106 3.63803,-0.34106 h 1.00425 v 4.52859 q -2.10324,0 -2.70958,0.24633 -0.58739,0.22738 -0.87161,0.72003 -0.28422,0.4737 -0.28422,1.64848 0,1.19373 -0.17053,4.5286 -0.0947,1.87586 -0.49265,3.05064 -0.39791,1.15583 -1.0232,1.91376 -0.60634,0.75792 -1.87586,1.57269 1.11794,0.64423 1.81902,1.51585 0.72002,0.85266 1.09899,2.08429 0.37896,1.23162 0.49265,3.29697 0.13263,3.14538 0.13263,4.01699 0,1.25058 0.30317,1.74323 0.30317,0.49265 0.90951,0.73897 0.62529,0.26527 2.67168,0.26527 v 4.54755 h -1.00425 q -2.55799,0 -3.92225,-0.41686 -1.36426,-0.39791 -2.31167,-1.34532 -0.92846,-0.9474 -1.25057,-2.34956 -0.32212,-1.38321 -0.32212,-4.37701 0,-3.48645 -0.30317,-4.52859 -0.41686,-1.51585 -1.26952,-2.16009 -0.83372,-0.66318 -2.57694,-0.75792 z m 38.55937,0 q -1.38321,0.0758 -2.08429,0.41686 -0.70108,0.34106 -1.21268,1.15583 -0.49265,0.79582 -0.70108,2.0085 -0.15158,0.90951 -0.15158,3.14538 0,3.67593 -0.34107,5.13494 -0.32212,1.459 -1.21268,2.33061 -0.89056,0.89056 -2.61483,1.40216 -1.15584,0.34107 -3.63804,0.34107 h -1.00425 v -4.54755 q 2.02745,0 2.65274,-0.26527 0.62528,-0.24632 0.9095,-0.73897 0.30317,-0.47371 0.30317,-1.62954 0.0189,-1.15583 0.17054,-4.41491 0.0947,-1.9706 0.5116,-3.14538 0.41685,-1.19373 1.09899,-2.0085 0.70107,-0.83371 1.78112,-1.459 -1.40216,-0.90951 -2.0464,-1.78112 -0.89056,-1.25058 -1.21268,-3.18328 -0.20843,-1.32637 -0.30317,-5.83602 -0.0189,-1.4211 -0.26527,-1.89481 -0.22738,-0.4737 -0.85266,-0.72002 -0.60634,-0.26528 -2.74748,-0.26528 v -4.52859 h 1.00425 q 2.55799,0 3.92226,0.39791 1.36426,0.39791 2.29272,1.36426 0.92845,0.94741 1.25057,2.34957 0.34107,1.38321 0.34107,4.37701 0,3.4675 0.28422,4.52859 0.41686,1.51585 1.26952,2.17903 0.85266,0.64424 2.59589,0.73898 z"
       id="text1"
       aria-label="{ }" /><text
       xml:space="preserve"
       style="font-weight:bold;font-size:38.8056px;line-height:1;font-family:Arial;-inkscape-font-specification:'Arial Bold';text-align:center;letter-spacing:0px;word-spacing:0px;writing-mode:lr-tb;direction:ltr;text-anchor:middle;fill:#0d9488;fill-opacity:1;stroke:none;stroke-width:4.99999;stroke-linecap:square;stroke-miterlimit:8"
       x="455.58664"
       y="144.09393"
       id="text2"><tspan
         sodipodi:role="line"
         id="tspan1"
         style="font-style:normal;font-variant:normal;font-weight:bold;font-stretch:normal;font-family:Lato;-inkscape-font-specification:'Lato Bold';fill:#0d9488;fill-opacity:1;stroke:none;stroke-width:5"
         x="455.58664"
         y="144.09393">Code That Makes Sense</tspan></text></g></svg>
