<?xml version="1.0" encoding="UTF-8" standalone="no"?>
<!-- Created with Inkscape (http://www.inkscape.org/) -->

<svg
   width="199.9073mm"
   height="28.885532mm"
   viewBox="0 0 199.9073 28.885532"
   version="1.1"
   id="svg1"
   xml:space="preserve"
   inkscape:version="1.4.3 (0d15f75, 2025-12-25)"
   sodipodi:docname="text-logo-small-dark-bg-embedded-font.svg"
   xmlns:inkscape="http://www.inkscape.org/namespaces/inkscape"
   xmlns:sodipodi="http://sodipodi.sourceforge.net/DTD/sodipodi-0.dtd"
   xmlns="http://www.w3.org/2000/svg"
   xmlns:svg="http://www.w3.org/2000/svg"><sodipodi:namedview
     id="namedview1"
     pagecolor="#ffffff"
     bordercolor="#000000"
     borderopacity="0.25"
     inkscape:showpageshadow="2"
     inkscape:pageopacity="0.0"
     inkscape:pagecheckerboard="true"
     inkscape:deskcolor="#d1d1d1"
     inkscape:document-units="mm"
     inkscape:zoom="2.2776422"
     inkscape:cx="653.96575"
     inkscape:cy="132.37373"
     inkscape:window-width="1736"
     inkscape:window-height="956"
     inkscape:window-x="1399"
     inkscape:window-y="502"
     inkscape:window-maximized="0"
     inkscape:current-layer="layer1" /><defs
     id="defs1"><inkscape:path-effect
       effect="bspline"
       id="path-effect27"
       is_visible="true"
       lpeversion="1.3"
       weight="33.333333"
       steps="2"
       helper_size="0"
       apply_no_weight="true"
       apply_with_weight="true"
       only_selected="false"
       uniform="false" /><inkscape:path-effect
       effect="bspline"
       id="path-effect24"
       is_visible="true"
       lpeversion="1.3"
       weight="33.333333"
       steps="2"
       helper_size="0"
       apply_no_weight="true"
       apply_with_weight="true"
       only_selected="false"
       uniform="false" /></defs><g
     inkscape:label="Layer 1"
     inkscape:groupmode="layer"
     id="layer1"
     transform="translate(-5.2119492,-145.68461)"><g
       id="g1"><g
         id="karate gi 2"
         transform="matrix(0.02085628,0,0,0.02085628,162.49944,142.544)"
         style="fill:#ffffff;fill-opacity:1;stroke:#ffffff;stroke-opacity:1"><path
           id="1"
           d="m 1655.112,1533.419 c -15.907,-4.278 -30.324,-17.757 -36.322,-33.958 -1.781,-4.81 -2.207,-8.085 -2.207,-16.961 0,-12.555 1.825,-19.023 7.984,-28.299 10.362,-15.606 26.18,-24.201 44.537,-24.201 19.815,0 43.213,-4.314 56.37,-10.393 23.616,-10.911 38.844,-29.718 46.01,-56.824 1.35,-5.106 2.91,-12.658 3.467,-16.783 0.611,-4.525 1.394,-70.764 1.975,-167 1.089,-180.465 1.372,-197.555 3.569,-215 5.853,-46.477 19.816,-81.448 43.434,-108.779 3.889,-4.5 7.071,-8.419 7.071,-8.707 0,-0.288 -3.96,-5.432 -8.801,-11.431 -21.27,-26.361 -33.372,-56.862 -39.906,-100.583 -1.676,-11.215 -1.793,-24.401 -1.793,-201.5 0,-177.835 -0.109,-189.962 -1.771,-197 -5.401,-22.874 -13.14,-37.607 -26.146,-49.773 -16.562,-15.493 -38.823,-23.204 -71.583,-24.795 -21.088,-1.024 -31.492,-4.925 -42.5,-15.932 -25.354,-25.354 -18.584,-67.812 13.361,-83.794 10.585,-5.295 15.822,-6.066 36.639,-5.393 50.045,1.618 90.887,13.111 123.538,34.766 12.85,8.522 31.401,27.181 40.202,40.433 12.511,18.84 22.1,41.966 27.171,65.536 6.498,30.2 6.088,15.105 6.095,224.452 0,0 0.01,190 0.01,190 0,0 2.143,9 2.143,9 8.393,35.259 26.189,56.522 55.749,66.607 12.05,4.111 22.026,5.847 39.96,6.953 23.024,1.42 31.255,4.179 42.172,14.136 7.244,6.607 12.893,15.215 15.479,23.587 2.365,7.657 2.643,21.156 0.595,28.849 -4.458,16.744 -19.862,32.663 -36.11,37.32 -2.2,0.631 -11.618,1.562 -20.928,2.07 -18.19,0.992 -30.224,2.82 -40.572,6.16 -31.856,10.283 -51.523,34.229 -58.573,71.318 -1.483,7.8 -1.812,19.933 -2.464,91 -0.414,45.1 -0.811,119.35 -0.884,165 -0.17,106.882 -1.037,127.076 -6.662,155 -16.148,80.165 -66.128,128.144 -147.917,141.993 -27.328,4.628 -61.001,5.988 -72.388,2.926"
           stroke="#000000"
           fill="#000000"
           stroke-width="1"
           style="fill:#ffffff;fill-opacity:1;stroke:#ffffff;stroke-opacity:1" /></g><g
         id="karate gi 1"
         transform="matrix(0.02085628,0,0,0.02085628,162.49944,142.544)"
         style="fill:#ffffff;fill-opacity:1;stroke:#ffffff;stroke-opacity:1"><path
           id="path14"
           d="m 683,1528.895 c -22.024,-1.924 -50.64,-7.874 -67.281,-13.989 -19.145,-7.036 -37.507,-17.642 -52.72,-30.454 -29.968,-25.239 -50.454,-66.076 -57.414,-114.452 -3.521,-24.471 -3.679,-36.877 -2.673,-209.5 0.644,-110.468 0.646,-172.637 0.005,-179.5 -4.711,-50.447 -31.052,-79.593 -78.917,-87.324 -5.225,-0.844 -15.125,-1.826 -22,-2.183 -6.875,-0.357 -14.524,-1.091 -16.999,-1.631 -13.039,-2.847 -27.775,-14.564 -33.858,-26.921 -10.414,-21.156 -6.663,-44.559 9.785,-61.056 11.219,-11.252 23.373,-15.834 42.098,-15.868 51.679,-0.094 86.342,-23.692 97.616,-66.458 4.386,-16.636 4.341,-15.001 5.35,-196.559 0.571,-102.723 1.394,-179.007 2.019,-187 6.365,-81.464 37.696,-134.858 95.418,-162.614 28.724,-13.812 61.162,-20.889 101.124,-22.062 23.357,-0.686 27.566,-0.147 38.337,4.911 7.672,3.603 19.334,14.759 23.354,22.34 7.735,14.589 7.723,35.496 -0.027,49.785 -3.635,6.701 -11.038,14.663 -17.817,19.163 -9.311,6.18 -14.885,7.614 -33.29,8.563 -25.515,1.316 -40.309,4.6 -55.818,12.39 -24.342,12.227 -38.372,33.032 -44.86,66.524 -1.828,9.436 -1.763,4.984 -3.461,240.5 -0.526,72.94 -1.383,134.767 -1.933,139.5 -6.013,51.724 -19.405,86.499 -44.796,116.325 0,0 -7.512,8.824 -7.512,8.824 0,0 4.018,4.176 4.018,4.176 10.317,10.721 21.98,28.888 29.193,45.474 7.661,17.618 13.243,39.544 16.724,65.701 1.992,14.97 2.127,39.431 1.403,254 -0.393,116.655 -0.283,128.769 1.242,136.671 6.32,32.754 19.619,52.746 43.69,65.674 15.088,8.104 29.792,11.5 56.5,13.05 21.177,1.229 27.56,3.552 38.891,14.152 12.595,11.782 16.924,21.617 16.924,38.453 0,16.839 -4.329,26.671 -16.932,38.461 -11.941,11.17 -20.784,14.107 -41.843,13.901 -7.722,-0.076 -18.315,-0.511 -23.54,-0.967"
           stroke="#000000"
           fill="#000000"
           stroke-width="1"
           style="fill:#ffffff;fill-opacity:1;stroke:#ffffff;stroke-opacity:1" /></g></g><g
       id="g3"><g
         id="g8"
         transform="translate(-19.100898,-9.6989727)"
         style="fill:#ffffff;fill-opacity:1"><path
           d="m 184.99847,162.3477 q -0.1016,0 -0.1651,-0.0635 -0.0635,-0.0635 -0.0635,-0.1524 v -2.6289 q 0,-0.1016 0.0699,-0.15875 0.0699,-0.0635 0.17145,-0.0635 h 0.6858 q 0.3048,0 0.53975,0.12065 0.2413,0.12065 0.37465,0.33655 0.1397,0.2159 0.1397,0.4953 0,0.2794 -0.1397,0.50165 -0.1397,0.2159 -0.381,0.33655 -0.2413,0.12065 -0.5334,0.12065 h -0.47625 v 0.9398 q 0,0.0889 -0.0635,0.1524 -0.0572,0.0635 -0.15875,0.0635 z m 1.59385,0 q -0.13335,0 -0.19685,-0.1016 l -0.7366,-1.20015 0.42545,-0.13335 0.6731,1.09855 q 0.0825,0.13335 0.0317,0.23495 -0.0444,0.1016 -0.19685,0.1016 z m -1.3716,-1.55575 h 0.50165 q 0.254,0 0.4191,-0.14605 0.1651,-0.14605 0.1651,-0.41275 0,-0.26035 -0.1651,-0.4064 -0.1651,-0.14605 -0.4191,-0.14605 h -0.50165 z m 0.48895,2.5654 q -0.5207,0 -0.97155,-0.1905 -0.45085,-0.1905 -0.79375,-0.52705 -0.33655,-0.3429 -0.52705,-0.79375 -0.1905,-0.45085 -0.1905,-0.9779 0,-0.508 0.1905,-0.9525 0.19685,-0.45085 0.5334,-0.79375 0.3429,-0.3429 0.79375,-0.5334 0.45085,-0.19685 0.9652,-0.19685 0.508,0 0.95885,0.19685 0.45085,0.1905 0.7874,0.5334 0.3429,0.33655 0.53975,0.7874 0.19685,0.45085 0.19685,0.95885 0,0.52705 -0.19685,0.9779 -0.1905,0.45085 -0.5334,0.79375 -0.3429,0.33655 -0.79375,0.52705 -0.4445,0.1905 -0.95885,0.1905 z m -0.006,-0.4572 q 0.42545,0 0.79375,-0.15875 0.3683,-0.15875 0.6477,-0.43815 0.2794,-0.2794 0.43815,-0.6477 0.15875,-0.3683 0.15875,-0.7874 0,-0.4191 -0.15875,-0.7874 -0.15875,-0.3683 -0.4445,-0.6477 -0.2794,-0.2794 -0.6477,-0.43815 -0.3683,-0.15875 -0.7874,-0.15875 -0.4191,0 -0.7874,0.15875 -0.3683,0.15875 -0.65405,0.43815 -0.2794,0.2794 -0.43815,0.6477 -0.15875,0.3683 -0.15875,0.7874 0,0.4191 0.15875,0.7874 0.1651,0.3683 0.43815,0.65405 0.2794,0.2794 0.6477,0.43815 0.3683,0.1524 0.79375,0.1524 z"
           id="text4"
           style="font-weight:500;font-size:6.35px;font-family:Comfortaa;-inkscape-font-specification:'Comfortaa Medium';text-align:center;text-anchor:middle;stroke-width:0.79375;fill:#ffffff;fill-opacity:1"
           aria-label="®" /><path
           d="m 28.670941,170.21546 q -0.83538,0 -1.566336,-0.248 -0.717904,-0.24801 -1.253069,-0.6918 -0.535165,-0.45685 -0.796221,-1.05728 -0.117475,-0.2219 -0.01305,-0.41769 0.117475,-0.19579 0.378531,-0.26106 0.195792,-0.0522 0.391584,0.0522 0.195792,0.0914 0.287162,0.30021 0.195792,0.36548 0.56127,0.66569 0.378532,0.28716 0.887591,0.45685 0.522112,0.15663 1.122541,0.15663 0.678745,0 1.21391,-0.22189 0.535165,-0.2219 0.848432,-0.63959 0.313267,-0.41769 0.313267,-1.01812 0,-0.75706 -0.574323,-1.31833 -0.574323,-0.57432 -1.827392,-0.71791 -1.553283,-0.18273 -2.440874,-0.95285 -0.874537,-0.77012 -0.874537,-1.90571 0,-0.80927 0.443795,-1.39665 0.443795,-0.60043 1.21391,-0.91369 0.770116,-0.32632 1.749076,-0.32632 0.744009,0 1.331385,0.23495 0.587376,0.22189 1.018119,0.60042 0.443795,0.37854 0.730956,0.84844 0.156634,0.23495 0.104423,0.45684 -0.03916,0.20885 -0.234951,0.32632 -0.208844,0.10443 -0.443795,0.0392 -0.221897,-0.0783 -0.339373,-0.28716 -0.195792,-0.31327 -0.496006,-0.57432 -0.287162,-0.27411 -0.704851,-0.43074 -0.41769,-0.15664 -0.992013,-0.16969 -1.005066,0 -1.644653,0.41769 -0.639587,0.41769 -0.639587,1.24002 0,0.41768 0.221898,0.79622 0.23495,0.36547 0.770115,0.62653 0.548217,0.26106 1.488019,0.39158 1.618547,0.20885 2.427821,0.97896 0.809273,0.77012 0.809273,2.02319 0,0.7179 -0.274108,1.26612 -0.261056,0.54822 -0.74401,0.92675 -0.482954,0.36548 -1.122541,0.56127 -0.626534,0.18274 -1.331385,0.18274 z m 7.244293,-0.13053 q -0.208845,0 -0.365479,-0.11747 -0.14358,-0.13053 -0.195792,-0.33938 l -2.662771,-8.94117 q -0.104422,-0.35242 0.02611,-0.57432 0.130528,-0.2219 0.430742,-0.2219 0.169687,0 0.313267,0.10443 0.156634,0.0914 0.234951,0.32632 l 2.375609,8.26242 h -0.300214 l 2.232029,-8.09274 q 0.03916,-0.15663 0.182739,-0.26105 0.156634,-0.10443 0.352426,-0.10443 0.169686,0 0.32632,0.10443 0.156633,0.0914 0.208844,0.27411 l 2.245082,8.07968 h -0.287162 l 2.388663,-8.32769 q 0.09137,-0.36548 0.548217,-0.36548 0.300215,0 0.404637,0.23495 0.104423,0.23495 0.01305,0.56127 l -2.649718,8.92812 q -0.07832,0.2219 -0.221898,0.35243 -0.143581,0.11747 -0.352426,0.11747 -0.195792,0 -0.352425,-0.13053 -0.143581,-0.13053 -0.208845,-0.32632 l -2.218976,-8.23631 h 0.313267 l -2.218976,8.22326 q -0.06526,0.20884 -0.221897,0.33937 -0.143581,0.13053 -0.339373,0.13053 z m 18.469699,0.13053 q -1.057277,0 -1.984026,-0.40464 -0.913696,-0.40464 -1.618547,-1.12254 -0.691799,-0.7179 -1.083383,-1.6577 -0.378531,-0.95286 -0.378531,-2.04929 0,-1.08339 0.378531,-2.02319 0.391584,-0.95285 1.083383,-1.6577 0.691798,-0.71791 1.605494,-1.12254 0.926749,-0.41769 1.997079,-0.41769 0.952854,0 1.709916,0.2741 0.757063,0.26106 1.474967,0.86149 0.117475,0.0914 0.143581,0.20884 0.03916,0.10443 0,0.20885 -0.02611,0.10442 -0.09137,0.18274 -0.02611,0.14358 -0.156634,0.23495 -0.117475,0.0783 -0.287161,0.0783 -0.169687,0 -0.339373,-0.13053 -0.496006,-0.4438 -1.07033,-0.65264 -0.574323,-0.2219 -1.383596,-0.2219 -0.822327,0 -1.553284,0.33937 -0.717904,0.32632 -1.266121,0.90065 -0.548218,0.57432 -0.861485,1.33138 -0.300214,0.75706 -0.300214,1.6055 0,0.87453 0.300214,1.6316 0.313267,0.75706 0.861485,1.33138 0.548217,0.57432 1.266121,0.90064 0.730957,0.32632 1.553284,0.32632 0.691798,0 1.318332,-0.23495 0.626535,-0.23495 1.200858,-0.66569 0.182739,-0.14358 0.365478,-0.11747 0.195792,0.0261 0.32632,0.16968 0.143581,0.13053 0.143581,0.36548 0,0.11748 -0.03916,0.20885 -0.03916,0.0914 -0.117475,0.19579 -0.678746,0.58737 -1.501072,0.86148 -0.809274,0.26106 -1.696864,0.26106 z m 5.834598,-4.55543 q 0.0261,-0.79622 0.404637,-1.42275 0.391584,-0.63959 1.018118,-1.00507 0.639587,-0.36548 1.39665,-0.36548 0.665692,0 1.005065,0.19579 0.352426,0.1958 0.261056,0.53517 -0.03916,0.18274 -0.169686,0.26105 -0.117475,0.0783 -0.287162,0.0783 -0.156633,0 -0.365478,-0.0261 -0.770115,-0.0914 -1.370544,0.10442 -0.587376,0.18274 -0.939802,0.61348 -0.352425,0.43074 -0.352425,1.03117 z m 0.06526,4.4249 q -0.261056,0 -0.404637,-0.14358 -0.143581,-0.14358 -0.143581,-0.40464 v -6.04344 q 0,-0.26106 0.143581,-0.40464 0.143581,-0.14358 0.404637,-0.14358 0.261056,0 0.391584,0.14358 0.143581,0.14358 0.143581,0.40464 v 6.04344 q 0,0.26106 -0.143581,0.40464 -0.130528,0.14358 -0.391584,0.14358 z m 8.118843,0.0653 q -0.992013,0 -1.775181,-0.4699 -0.783168,-0.48295 -1.240016,-1.30528 -0.456848,-0.82232 -0.456848,-1.85349 0,-1.04423 0.469901,-1.86655 0.482954,-0.82233 1.30528,-1.29223 0.822327,-0.48296 1.853498,-0.48296 1.018118,0 1.827392,0.48296 0.822326,0.4699 1.292227,1.29223 0.482954,0.82232 0.496006,1.86655 l -0.443795,0.22189 q 0,0.96591 -0.443795,1.73603 -0.430742,0.77011 -1.187805,1.22696 -0.744009,0.44379 -1.696864,0.44379 z m 0.156634,-0.99201 q 0.730957,0 1.292227,-0.33937 0.574323,-0.35243 0.900643,-0.95286 0.339373,-0.60042 0.339373,-1.34443 0,-0.75707 -0.339373,-1.34444 -0.32632,-0.60043 -0.900643,-0.95286 -0.56127,-0.35242 -1.292227,-0.35242 -0.717904,0 -1.30528,0.35242 -0.574323,0.35243 -0.913696,0.95286 -0.339373,0.58737 -0.339373,1.34444 0,0.74401 0.339373,1.34443 0.339373,0.60043 0.913696,0.95286 0.587376,0.33937 1.30528,0.33937 z m 3.054355,0.92675 q -0.23495,0 -0.404637,-0.14358 -0.156633,-0.15663 -0.156633,-0.40464 V 167.383 l 0.248003,-1.13559 0.874537,0.27411 v 3.01519 q 0,0.24801 -0.156633,0.40464 -0.156634,0.14358 -0.404637,0.14358 z m 3.36763,0 q -0.208845,0 -0.365479,-0.14358 -0.156633,-0.15663 -0.156633,-0.41769 v -6.55251 q 0,-0.92674 0.32632,-1.61854 0.32632,-0.6918 0.952854,-1.07033 0.639587,-0.39159 1.514125,-0.39159 0.248003,0 0.404637,0.14358 0.156633,0.14359 0.156633,0.35243 0,0.2219 -0.156633,0.36548 -0.156634,0.14358 -0.404637,0.14358 -0.548218,0 -0.926749,0.26106 -0.378531,0.248 -0.574323,0.70485 -0.195792,0.44379 -0.195792,1.03117 v 6.63082 q 0,0.26106 -0.156634,0.41769 -0.143581,0.14358 -0.417689,0.14358 z M 73.703078,164.159 q -0.23495,0 -0.378531,-0.13053 -0.130528,-0.14358 -0.130528,-0.33937 0,-0.20885 0.130528,-0.33937 0.143581,-0.14359 0.378531,-0.14359 h 3.35457 q 0.221897,0 0.352425,0.14359 0.143581,0.13052 0.143581,0.33937 0,0.19579 -0.143581,0.33937 -0.130528,0.13053 -0.352425,0.13053 z m 7.936095,5.92597 q -0.678746,0 -1.213911,-0.32632 -0.535164,-0.32632 -0.848432,-0.90064 -0.300214,-0.57433 -0.300214,-1.29223 v -6.34366 q 0,-0.23495 0.143581,-0.39158 0.156633,-0.15664 0.404637,-0.15664 0.23495,0 0.391584,0.15664 0.156633,0.15663 0.156633,0.39158 v 6.34366 q 0,0.61348 0.352426,1.01812 0.365478,0.40464 0.913696,0.40464 h 0.391584 q 0.208845,0 0.352425,0.15663 0.143581,0.15663 0.143581,0.39158 0,0.24801 -0.182739,0.40464 -0.169686,0.14358 -0.443795,0.14358 z M 78.506501,164.159 q -0.221898,0 -0.365479,-0.13053 -0.14358,-0.14358 -0.14358,-0.33937 0,-0.20885 0.14358,-0.33937 0.143581,-0.14359 0.365479,-0.14359 h 3.224041 q 0.221898,0 0.365479,0.14359 0.143581,0.13052 0.143581,0.33937 0,0.19579 -0.143581,0.33937 -0.143581,0.13053 -0.365479,0.13053 z m 8.171058,5.99123 q -0.809274,0 -1.579389,-0.26105 -0.757063,-0.27411 -1.213911,-0.77012 -0.156633,-0.16968 -0.130528,-0.39158 0.02611,-0.2219 0.208845,-0.36548 0.208845,-0.15663 0.41769,-0.13053 0.221897,0.0261 0.365478,0.18274 0.287162,0.33937 0.796221,0.54822 0.509059,0.19579 1.122541,0.19579 0.900643,0 1.318333,-0.30021 0.430742,-0.31327 0.443795,-0.77012 0,-0.44379 -0.430743,-0.74401 -0.417689,-0.30021 -1.435808,-0.4699 -1.318332,-0.2219 -1.931814,-0.74401 -0.600429,-0.52211 -0.600429,-1.25307 0,-0.66569 0.365479,-1.10948 0.365478,-0.4438 0.952854,-0.6657 0.600429,-0.2219 1.292227,-0.2219 0.874538,0 1.514125,0.30022 0.639587,0.28716 1.031171,0.78317 0.143581,0.18274 0.117475,0.39158 -0.01305,0.19579 -0.208844,0.31327 -0.169687,0.11747 -0.404637,0.0783 -0.221898,-0.0392 -0.378531,-0.20885 -0.32632,-0.35243 -0.74401,-0.50906 -0.41769,-0.16969 -0.952854,-0.16969 -0.678746,0 -1.096436,0.27411 -0.417689,0.26106 -0.417689,0.67875 0,0.28716 0.143581,0.49601 0.156633,0.20884 0.535164,0.37853 0.391584,0.15663 1.109488,0.28716 0.97896,0.16968 1.540231,0.48295 0.574323,0.30022 0.809273,0.70485 0.248004,0.40464 0.248004,0.90065 0,0.61348 -0.352426,1.08338 -0.339373,0.45685 -0.965907,0.73096 -0.626535,0.2741 -1.488019,0.2741 z m 14.097041,-0.0653 q -0.248,0 -0.40464,-0.14358 -0.15663,-0.15663 -0.15663,-0.40464 v -3.74615 q 0,-0.90064 -0.456851,-1.39665 -0.456848,-0.49601 -1.187805,-0.49601 -0.770115,0 -1.266121,0.52212 -0.482954,0.52211 -0.482954,1.37054 h -0.952854 q 0.01305,-0.87454 0.378531,-1.52718 0.365478,-0.66569 1.005065,-1.03117 0.65264,-0.36548 1.474967,-0.36548 0.757062,0 1.344442,0.35243 0.58738,0.35242 0.9137,1.01812 0.33937,0.65264 0.33937,1.55328 v 3.74615 q 0,0.24801 -0.15663,0.40464 -0.15664,0.14358 -0.39159,0.14358 z m -9.006435,0 q -0.261056,0 -0.417689,-0.14358 -0.143581,-0.15663 -0.143581,-0.40464 v -6.03039 q 0,-0.248 0.143581,-0.40464 0.156633,-0.15663 0.417689,-0.15663 0.248003,0 0.391584,0.15663 0.156634,0.15664 0.156634,0.40464 v 6.03039 q 0,0.24801 -0.156634,0.40464 -0.143581,0.14358 -0.391584,0.14358 z m 4.503216,0 q -0.23495,0 -0.391584,-0.14358 -0.156633,-0.15663 -0.156633,-0.40464 v -3.74615 q 0,-0.90064 -0.469901,-1.39665 -0.456848,-0.49601 -1.174752,-0.49601 -0.770115,0 -1.266122,0.50906 -0.496006,0.50906 -0.496006,1.33139 H 91.55932 q 0.02611,-0.84843 0.365479,-1.48802 0.339373,-0.65264 0.939801,-1.01812 0.600429,-0.36548 1.370545,-0.36548 0.757062,0 1.344438,0.35243 0.587376,0.35242 0.913696,1.01812 0.32632,0.65264 0.32632,1.55328 v 3.74615 q 0,0.24801 -0.156634,0.40464 -0.14358,0.14358 -0.391584,0.14358 z m 10.350879,0.0653 q -0.99201,0 -1.77518,-0.4699 -0.78317,-0.48295 -1.24002,-1.30528 -0.45685,-0.82232 -0.45685,-1.85349 0,-1.04423 0.4699,-1.86655 0.48296,-0.82233 1.30528,-1.29223 0.82233,-0.48296 1.8535,-0.48296 1.01812,0 1.82739,0.48296 0.82233,0.4699 1.29223,1.29223 0.48295,0.82232 0.49601,1.86655 l -0.4438,0.22189 q 0,0.96591 -0.44379,1.73603 -0.43075,0.77011 -1.18781,1.22696 -0.74401,0.44379 -1.69686,0.44379 z m 0.15663,-0.99201 q 0.73096,0 1.29223,-0.33937 0.57432,-0.35243 0.90064,-0.95286 0.33938,-0.60042 0.33938,-1.34443 0,-0.75707 -0.33938,-1.34444 -0.32632,-0.60043 -0.90064,-0.95286 -0.56127,-0.35242 -1.29223,-0.35242 -0.7179,0 -1.30528,0.35242 -0.57432,0.35243 -0.91369,0.95286 -0.33938,0.58737 -0.33938,1.34444 0,0.74401 0.33938,1.34443 0.33937,0.60043 0.91369,0.95286 0.58738,0.33937 1.30528,0.33937 z m 3.05436,0.92675 q -0.23495,0 -0.40464,-0.14358 -0.15663,-0.15663 -0.15663,-0.40464 V 167.383 l 0.248,-1.13559 0.87454,0.27411 v 3.01519 q 0,0.24801 -0.15664,0.40464 -0.15663,0.14358 -0.40463,0.14358 z m 8.61485,0 q -0.248,0 -0.40463,-0.15663 -0.15664,-0.15664 -0.15664,-0.39159 v -3.32846 q 0,-0.79622 -0.30021,-1.29223 -0.28716,-0.50906 -0.79622,-0.75706 -0.50906,-0.26106 -1.1617,-0.26106 -0.61348,0 -1.10949,0.24801 -0.48295,0.23495 -0.77012,0.65264 -0.28716,0.40463 -0.28716,0.9398 h -0.75706 q 0.0261,-0.82233 0.43074,-1.46192 0.41769,-0.65264 1.10949,-1.03117 0.6918,-0.37853 1.54023,-0.37853 0.9137,0 1.6316,0.39159 0.73096,0.37853 1.14865,1.12254 0.43074,0.74401 0.43074,1.82739 v 3.32846 q 0,0.23495 -0.15663,0.39159 -0.15664,0.15663 -0.39159,0.15663 z m -5.53438,0 q -0.26106,0 -0.41769,-0.14358 -0.14359,-0.15663 -0.14359,-0.40464 v -6.03039 q 0,-0.26106 0.14359,-0.40464 0.15663,-0.15663 0.41769,-0.15663 0.248,0 0.39158,0.15663 0.15663,0.14358 0.15663,0.40464 v 6.03039 q 0,0.24801 -0.15663,0.40464 -0.14358,0.14358 -0.39158,0.14358 z m 10.82078,0.0653 q -0.80928,0 -1.57939,-0.26105 -0.75706,-0.27411 -1.21391,-0.77012 -0.15664,-0.16968 -0.13053,-0.39158 0.0261,-0.2219 0.20884,-0.36548 0.20885,-0.15663 0.41769,-0.13053 0.2219,0.0261 0.36548,0.18274 0.28716,0.33937 0.79622,0.54822 0.50906,0.19579 1.12254,0.19579 0.90065,0 1.31834,-0.30021 0.43074,-0.31327 0.44379,-0.77012 0,-0.44379 -0.43074,-0.74401 -0.41769,-0.30021 -1.43581,-0.4699 -1.31833,-0.2219 -1.93181,-0.74401 -0.60043,-0.52211 -0.60043,-1.25307 0,-0.66569 0.36548,-1.10948 0.36548,-0.4438 0.95285,-0.6657 0.60043,-0.2219 1.29223,-0.2219 0.87454,0 1.51412,0.30022 0.63959,0.28716 1.03117,0.78317 0.14359,0.18274 0.11748,0.39158 -0.013,0.19579 -0.20885,0.31327 -0.16968,0.11747 -0.40463,0.0783 -0.2219,-0.0392 -0.37853,-0.20885 -0.32632,-0.35243 -0.74401,-0.50906 -0.41769,-0.16969 -0.95286,-0.16969 -0.67874,0 -1.09643,0.27411 -0.41769,0.26106 -0.41769,0.67875 0,0.28716 0.14358,0.49601 0.15663,0.20884 0.53516,0.37853 0.39159,0.15663 1.10949,0.28716 0.97896,0.16968 1.54023,0.48295 0.57433,0.30022 0.80928,0.70485 0.248,0.40464 0.248,0.90065 0,0.61348 -0.35243,1.08338 -0.33937,0.45685 -0.9659,0.73096 -0.62654,0.2741 -1.48802,0.2741 z m 5.0906,-2.88466 q -0.26106,0 -0.41769,-0.15664 -0.14358,-0.15663 -0.14358,-0.39158 v -6.26535 q 0,-0.26105 0.14358,-0.40463 0.15663,-0.15664 0.41769,-0.15664 0.248,0 0.39158,0.15664 0.15664,0.14358 0.15664,0.40463 v 6.26535 q 0,0.23495 -0.15664,0.39158 -0.14358,0.15664 -0.39158,0.15664 z m 5.53439,2.8194 q -0.24801,0 -0.40464,-0.15663 -0.15663,-0.15664 -0.15663,-0.39159 v -3.32846 q 0,-0.79622 -0.30022,-1.29223 -0.28716,-0.50906 -0.79622,-0.75706 -0.50906,-0.26106 -1.1617,-0.26106 -0.61348,0 -1.10949,0.24801 -0.48295,0.23495 -0.77011,0.65264 -0.28716,0.40463 -0.28716,0.9398 h -0.75706 q 0.0261,-0.82233 0.43074,-1.46192 0.41769,-0.65264 1.10949,-1.03117 0.69179,-0.37853 1.54023,-0.37853 0.91369,0 1.6316,0.39159 0.73095,0.37853 1.14864,1.12254 0.43074,0.74401 0.43074,1.82739 v 3.32846 q 0,0.23495 -0.15663,0.39159 -0.15663,0.15663 -0.39158,0.15663 z m -5.53439,0 q -0.26106,0 -0.41769,-0.14358 -0.14358,-0.15663 -0.14358,-0.40464 v -6.03039 q 0,-0.26106 0.14358,-0.40464 0.15663,-0.15663 0.41769,-0.15663 0.248,0 0.39158,0.15663 0.15664,0.14358 0.15664,0.40464 v 6.03039 q 0,0.24801 -0.15664,0.40464 -0.14358,0.14358 -0.39158,0.14358 z m 9.0456,0 q -0.248,0 -0.40464,-0.14358 -0.15663,-0.15663 -0.15663,-0.41769 v -6.01734 q 0,-0.26106 0.15663,-0.40464 0.15664,-0.15663 0.40464,-0.15663 0.248,0 0.39158,0.15663 0.15664,0.14358 0.15664,0.40464 v 6.01734 q 0,0.26106 -0.15664,0.41769 -0.14358,0.14358 -0.39158,0.14358 z m -0.013,-8.43211 q -0.31327,0 -0.53517,-0.2219 -0.22189,-0.23495 -0.22189,-0.54821 0,-0.32632 0.22189,-0.53517 0.23495,-0.20884 0.53517,-0.20884 0.30021,0 0.52211,0.20884 0.23495,0.20885 0.23495,0.53517 0,0.31326 -0.2219,0.54821 -0.22189,0.2219 -0.53516,0.2219 z m 3.65477,11.48647 q -0.26105,0 -0.41769,-0.15664 -0.14358,-0.14358 -0.14358,-0.40463 v -6.09566 q 0.0131,-1.01812 0.48296,-1.82739 0.48295,-0.82233 1.29222,-1.29223 0.80928,-0.48296 1.8274,-0.48296 1.04422,0 1.85349,0.48296 0.82233,0.4699 1.29223,1.29223 0.48296,0.82232 0.48296,1.86655 0,1.03117 -0.45685,1.85349 -0.4438,0.82233 -1.22697,1.30528 -0.78316,0.4699 -1.77518,0.4699 -0.84843,0 -1.54023,-0.35242 -0.6918,-0.36548 -1.12254,-0.95286 v 3.73311 q 0,0.26105 -0.15663,0.40463 -0.15664,0.15664 -0.39159,0.15664 z m 3.04131,-3.98111 q 0.73095,0 1.30528,-0.33937 0.58737,-0.35243 0.91369,-0.95286 0.33938,-0.60042 0.33938,-1.34443 0,-0.75707 -0.33938,-1.34444 -0.32632,-0.60043 -0.91369,-0.95286 -0.57433,-0.35242 -1.30528,-0.35242 -0.70485,0 -1.29223,0.35242 -0.57432,0.35243 -0.90064,0.95286 -0.32632,0.58737 -0.32632,1.34444 0,0.74401 0.32632,1.34443 0.32632,0.60043 0.90064,0.95286 0.57432,0.33937 1.29223,0.33937 z m 10.12896,0.92675 q -0.24801,0 -0.40464,-0.15663 -0.15663,-0.15664 -0.15663,-0.40464 v -9.0717 q 0,-0.248 0.15663,-0.40463 0.15663,-0.15664 0.40464,-0.15664 h 2.3495 q 1.12254,0 2.04929,0.37853 0.9398,0.36548 1.61855,1.05728 0.67874,0.67875 1.04422,1.6055 0.36548,0.92674 0.36548,2.04929 0,1.12254 -0.36548,2.06234 -0.36548,0.92675 -1.04422,1.61855 -0.67875,0.67874 -1.61855,1.05727 -0.92675,0.36548 -2.04929,0.36548 z m 0.56127,-1.00507 h 1.78823 q 1.17475,0 2.06234,-0.52211 0.90065,-0.53516 1.40971,-1.46191 0.50905,-0.92675 0.50905,-2.11455 0,-1.18781 -0.50905,-2.11456 -0.50906,-0.92675 -1.40971,-1.44886 -0.88759,-0.52211 -2.06234,-0.52211 h -1.78823 z m 12.09993,1.07033 q -1.05727,0 -1.8796,-0.4699 -0.80927,-0.4699 -1.27917,-1.29222 -0.4699,-0.82233 -0.4699,-1.86655 0,-1.05728 0.4699,-1.87961 0.4699,-0.82232 1.27917,-1.29222 0.82233,-0.46991 1.8796,-0.46991 1.04423,0 1.8535,0.46991 0.80928,0.4699 1.27918,1.29222 0.4699,0.82233 0.48295,1.87961 0,1.04422 -0.4699,1.86655 -0.4699,0.82232 -1.29223,1.29222 -0.80927,0.4699 -1.8535,0.4699 z m 0,-0.99201 q 0.73096,0 1.30528,-0.33937 0.57433,-0.35243 0.90065,-0.9398 0.32632,-0.60043 0.32632,-1.35749 0,-0.75707 -0.32632,-1.3575 -0.32632,-0.60042 -0.90065,-0.9398 -0.57432,-0.35242 -1.30528,-0.35242 -0.73095,0 -1.31833,0.35242 -0.57432,0.33938 -0.91369,0.9398 -0.32632,0.60043 -0.32632,1.3575 0,0.75706 0.32632,1.35749 0.33937,0.58737 0.91369,0.9398 0.58738,0.33937 1.31833,0.33937 z m 3.70702,3.98111 q -0.248,0 -0.40463,-0.15664 -0.15664,-0.14358 -0.15664,-0.40463 0,-0.24801 0.15664,-0.40464 0.15663,-0.14358 0.40463,-0.14358 0.57433,0 1.00507,-0.26106 0.44379,-0.248 0.6918,-0.6918 0.26105,-0.43074 0.26105,-1.00506 v -6.56556 q 0,-0.26106 0.14358,-0.40464 0.15664,-0.15663 0.40464,-0.15663 0.248,0 0.39158,0.15663 0.15664,0.14358 0.15664,0.40464 v 6.56556 q 0,0.90064 -0.39159,1.59244 -0.39158,0.6918 -1.08338,1.08338 -0.6918,0.39159 -1.57939,0.39159 z m 2.49309,-11.48647 q -0.31327,0 -0.53517,-0.2219 -0.2219,-0.23495 -0.2219,-0.54821 0,-0.32632 0.2219,-0.53517 0.23495,-0.20884 0.53517,-0.20884 0.30021,0 0.52211,0.20884 0.23495,0.20885 0.23495,0.53517 0,0.31326 -0.2219,0.54821 -0.2219,0.2219 -0.53516,0.2219 z m 5.83458,8.49737 q -1.05728,0 -1.87961,-0.4699 -0.80927,-0.4699 -1.27917,-1.29222 -0.4699,-0.82233 -0.4699,-1.86655 0,-1.05728 0.4699,-1.87961 0.4699,-0.82232 1.27917,-1.29222 0.82233,-0.46991 1.87961,-0.46991 1.04422,0 1.8535,0.46991 0.80927,0.4699 1.27917,1.29222 0.4699,0.82233 0.48295,1.87961 0,1.04422 -0.4699,1.86655 -0.4699,0.82232 -1.29222,1.29222 -0.80928,0.4699 -1.8535,0.4699 z m 0,-0.99201 q 0.73095,0 1.30528,-0.33937 0.57432,-0.35243 0.90064,-0.9398 0.32632,-0.60043 0.32632,-1.35749 0,-0.75707 -0.32632,-1.3575 -0.32632,-0.60042 -0.90064,-0.9398 -0.57433,-0.35242 -1.30528,-0.35242 -0.73096,0 -1.31834,0.35242 -0.57432,0.33938 -0.91369,0.9398 -0.32632,0.60043 -0.32632,1.3575 0,0.75706 0.32632,1.35749 0.33937,0.58737 0.91369,0.9398 0.58738,0.33937 1.31834,0.33937 z"
           id="text5"
           style="font-weight:500;font-size:13.0528px;font-family:Comfortaa;-inkscape-font-specification:'Comfortaa Medium';text-align:center;text-anchor:middle;stroke-width:0.79375;fill:#ffffff;fill-opacity:1"
           aria-label="SW Craftsmanship Dojo" /></g><g
         id="g2"><path
           id="rect3"
           style="fill:#ababab;stroke-width:0.811672"
           d="m 5.211949,165.7314 h 34.005963 v 3.14718 H 5.211949 Z" /><path
           id="rect3-1"
           style="fill:#ababab;stroke-width:0.811672"
           d="m 135.65555,165.7314 h 34.00597 v 3.14718 h -34.00597 z" /><path
           style="font-weight:bold;font-size:9.17222px;font-family:Raleway;-inkscape-font-specification:'Raleway Bold';text-align:center;text-anchor:middle;fill:#d2d2d2;stroke-width:0.79375;fill-opacity:1"
           d="m 86.709852,168.99449 v 1.10984 h -4.5219 v -6.51228 h 4.43935 v 1.10984 h -3.17359 v 1.56845 h 2.7425 v 1.02729 h -2.7425 v 1.69686 z m 1.66017,-5.40244 1.76107,5.00803 1.74272,-5.00803 h 1.32997 l -2.46732,6.51228 h -1.21991 l -2.4765,-6.51228 z m 8.05826,6.55814 q -0.71544,0 -1.30246,-0.27517 -0.57785,-0.27516 -0.99977,-0.74295 -0.41275,-0.47695 -0.64206,-1.06397 -0.2293,-0.5962 -0.2293,-1.21991 0,-0.65123 0.23848,-1.23825 0.24765,-0.59619 0.66957,-1.0548 0.43109,-0.46779 1.00894,-0.73378 0.58702,-0.27517 1.28411,-0.27517 0.70626,0 1.28411,0.28434 0.58703,0.28434 0.99978,0.76129 0.41275,0.47696 0.64205,1.06398 0.22931,0.58702 0.22931,1.21074 0,0.64205 -0.23848,1.23824 -0.23848,0.58703 -0.66957,1.05481 -0.42192,0.45861 -1.00895,0.72461 -0.57785,0.26599 -1.26576,0.26599 z m -1.88948,-3.302 q 0,0.42192 0.12841,0.81633 0.12841,0.3944 0.36689,0.70626 0.24765,0.30268 0.59619,0.48613 0.35772,0.17427 0.80716,0.17427 0.45861,0 0.81633,-0.18345 0.35771,-0.19261 0.59619,-0.50447 0.23848,-0.32103 0.35772,-0.70626 0.12841,-0.3944 0.12841,-0.78881 0,-0.42192 -0.13758,-0.80715 -0.12842,-0.39441 -0.37607,-0.69709 -0.23847,-0.31186 -0.59619,-0.48613 -0.34854,-0.18345 -0.78881,-0.18345 -0.46778,0 -0.8255,0.19262 -0.34854,0.18345 -0.58702,0.4953 -0.23848,0.31186 -0.36689,0.69709 -0.11924,0.38523 -0.11924,0.78881 z m 6.044498,3.25614 v -6.51228 h 1.26576 v 5.40244 h 3.32035 v 1.10984 z m 7.94601,0.0459 q -0.77963,0 -1.32997,-0.25682 -0.54116,-0.266 -0.88053,-0.72461 -0.3302,-0.45861 -0.48613,-1.03646 -0.15593,-0.58702 -0.15593,-1.2199 v -3.32035 h 1.26577 v 3.32035 q 0,0.40357 0.0734,0.78881 0.0825,0.37606 0.26599,0.67874 0.18345,0.30268 0.48613,0.47696 0.30268,0.17427 0.75212,0.17427 0.45861,0 0.7613,-0.17427 0.31185,-0.18345 0.48612,-0.48613 0.18345,-0.30268 0.266,-0.67874 0.0825,-0.38524 0.0825,-0.77964 v -3.32035 h 1.25659 v 3.32035 q 0,0.66957 -0.1651,1.25659 -0.15592,0.58702 -0.50447,1.03646 -0.33937,0.44027 -0.88053,0.69709 -0.54116,0.24765 -1.29329,0.24765 z m 8.98878,-5.4483 H 115.436 v 5.40244 h -1.2566 v -5.40244 h -2.08209 v -1.10984 h 5.42078 z m 0.80715,5.40244 v -6.51228 h 1.26577 v 6.51228 z m 5.40243,0.0459 q -0.71543,0 -1.30245,-0.27517 -0.57785,-0.27516 -0.99978,-0.74295 -0.41275,-0.47695 -0.64205,-1.06397 -0.22931,-0.5962 -0.22931,-1.21991 0,-0.65123 0.23848,-1.23825 0.24765,-0.59619 0.66957,-1.0548 0.4311,-0.46779 1.00895,-0.73378 0.58702,-0.27517 1.28411,-0.27517 0.70626,0 1.28411,0.28434 0.58702,0.28434 0.99977,0.76129 0.41275,0.47696 0.64206,1.06398 0.2293,0.58702 0.2293,1.21074 0,0.64205 -0.23848,1.23824 -0.23847,0.58703 -0.66957,1.05481 -0.42192,0.45861 -1.00894,0.72461 -0.57785,0.26599 -1.26577,0.26599 z m -1.88948,-3.302 q 0,0.42192 0.12841,0.81633 0.12842,0.3944 0.36689,0.70626 0.24765,0.30268 0.5962,0.48613 0.35771,0.17427 0.80715,0.17427 0.45861,0 0.81633,-0.18345 0.35772,-0.19261 0.59619,-0.50447 0.23848,-0.32103 0.35772,-0.70626 0.12841,-0.3944 0.12841,-0.78881 0,-0.42192 -0.13758,-0.80715 -0.12841,-0.39441 -0.37606,-0.69709 -0.23848,-0.31186 -0.5962,-0.48613 -0.34854,-0.18345 -0.78881,-0.18345 -0.46778,0 -0.8255,0.19262 -0.34854,0.18345 -0.58702,0.4953 -0.23848,0.31186 -0.36689,0.69709 -0.11924,0.38523 -0.11924,0.78881 z m 7.31027,-0.92639 v 4.18253 h -1.26577 v -6.51228 h 1.00895 l 3.3662,4.2926 v -4.28343 h 1.26577 v 6.50311 h -1.05481 z"
           id="text6"
           aria-label="EVOLUTION" /><path
           style="font-weight:bold;font-size:9.17223px;font-family:'Averia Sans Libre';-inkscape-font-specification:'Averia Sans Libre Bold';text-align:center;text-anchor:middle;stroke-width:0.79375;fill:#ffffff;fill-opacity:1"
           d="m 44.893723,166.61768 v -0.37621 q 0,-0.46578 -0.138838,-0.91812 -0.134359,-0.45682 -0.349333,-0.71658 -0.461299,-0.5643 -1.33911,-0.5643 h -0.06718 q -0.644922,0 -0.738974,0.21945 -0.0627,0.14779 -0.0627,1.28089 v 2.09152 l 0.0045,0.13435 q 0,0.0672 0,0.13436 l 0.009,0.26424 0.01344,0.26424 q 0,0.2508 0.09853,0.35381 0.103009,0.0985 0.470256,0.0985 h 0.255282 q 0.900204,0 1.357024,-0.59118 0.210496,-0.26871 0.349333,-0.71658 0.138838,-0.45234 0.138838,-0.95842 z m -2.078084,-3.27388 h 0.29559 q 1.397332,0 2.100476,0.78376 0.707623,0.77928 0.707623,2.23931 v 0.10749 q 0,0.66732 -0.183623,1.31224 -0.331419,1.16444 -1.388375,1.62126 -0.564307,0.24633 -1.236101,0.24633 h -0.586701 q -0.730016,0 -1.04352,-0.16123 -0.16123,-0.0851 -0.16123,-0.50609 l 0.01791,-0.58222 v -0.48369 l -0.0045,-0.19706 v -0.48369 l -0.0045,-0.19258 v -0.48818 l -0.0045,-0.19258 q 0,-0.0985 0,-0.19706 l -0.02239,-1.14205 q 0,-0.13883 0,-0.27767 l -0.01344,-0.47026 -0.0045,-0.0941 v -0.1881 l 0.0045,-0.0896 q 0,-0.36277 0.246325,-0.43891 0.398598,-0.1254 1.280887,-0.1254 z m 6.243208,3.69039 q 0.286632,0 0.492649,-0.12988 0.111965,-0.0717 0.111965,-0.28663 v -0.0269 q 0,-0.32247 -0.197059,-0.54192 -0.19706,-0.22393 -0.559829,-0.22393 h -0.05374 q -0.407555,0 -0.75241,0.30455 -0.340375,0.30454 -0.340375,0.77032 v 0.0761 q 0,0.13883 0.210495,0.13883 l 0.04479,0.009 h 0.161231 l 0.02687,-0.004 0.246324,-0.0179 0.03135,-0.004 0.165709,-0.0134 q 0.03135,-0.004 0.07166,-0.009 0.04031,-0.004 0.161231,-0.0224 0.125401,-0.0179 0.179145,-0.0179 z m -0.237368,2.6827 h -0.103008 q -0.452341,-0.004 -0.824068,-0.16571 -0.712101,-0.31351 -0.962905,-1.07487 -0.138837,-0.42547 -0.138837,-0.8599 v -0.20154 q 0.0045,-0.45234 0.174666,-0.9002 0.349333,-0.90468 1.151008,-1.20027 0.376205,-0.13436 0.770324,-0.13436 h 0.09853 q 0.635965,0 1.056956,0.39412 0.420991,0.38964 0.420991,1.06591 v 0.0896 q 0,0.47474 -0.304547,0.66732 -0.232889,0.14779 -1.070392,0.26872 -0.833025,0.12092 -0.998734,0.17466 -0.268718,0.0851 -0.268718,0.24633 0,0.40755 0.407556,0.68075 0.237367,0.15675 0.738973,0.15675 0.206017,0 0.640444,-0.12092 0.438905,-0.1254 0.550871,-0.1254 0.264239,0 0.264239,0.26871 0,0.26872 -0.515042,0.51952 -0.510564,0.25081 -1.088307,0.25081 z m 2.396066,-4.28605 q 0,-0.15675 0.264239,-0.15675 0.268718,0 0.420991,0.10749 0.156752,0.10748 0.300068,0.41651 0.147795,0.30902 0.501607,1.55856 0.35829,1.24506 0.483691,1.24506 0.103009,0 0.546393,-1.32567 0.443384,-1.33016 0.613572,-1.66605 0.170188,-0.34038 0.483692,-0.34038 0.313504,0 0.313504,0.19706 0,0.0806 -0.438906,1.43316 -0.438905,1.34807 -0.859896,2.21244 -0.161231,0.3359 -0.309026,0.42995 -0.147794,0.0941 -0.38964,0.0941 -0.241846,0 -0.367248,-0.0985 -0.120923,-0.0985 -0.385162,-0.67179 -0.264239,-0.57327 -0.721059,-1.97956 -0.45682,-1.40628 -0.45682,-1.45555 z m 6.749292,1.60335 q 0.286632,0 0.492649,-0.12988 0.111966,-0.0717 0.111966,-0.28663 v -0.0269 q 0,-0.32247 -0.19706,-0.54192 -0.197059,-0.22393 -0.559828,-0.22393 h -0.05374 q -0.407555,0 -0.752409,0.30455 -0.340376,0.30454 -0.340376,0.77032 v 0.0761 q 0,0.13883 0.210496,0.13883 l 0.04479,0.009 h 0.16123 l 0.02687,-0.004 0.246325,-0.0179 0.03135,-0.004 0.165709,-0.0134 q 0.03135,-0.004 0.07166,-0.009 0.04031,-0.004 0.161231,-0.0224 0.125402,-0.0179 0.179145,-0.0179 z m -0.237367,2.6827 h -0.103009 q -0.452341,-0.004 -0.824067,-0.16571 -0.712102,-0.31351 -0.962905,-1.07487 -0.138838,-0.42547 -0.138838,-0.8599 v -0.20154 q 0.0045,-0.45234 0.174667,-0.9002 0.349333,-0.90468 1.151007,-1.20027 0.376205,-0.13436 0.770324,-0.13436 h 0.09853 q 0.635965,0 1.056956,0.39412 0.420991,0.38964 0.420991,1.06591 v 0.0896 q 0,0.47474 -0.304546,0.66732 -0.232889,0.14779 -1.070392,0.26872 -0.833025,0.12092 -0.998734,0.17466 -0.268718,0.0851 -0.268718,0.24633 0,0.40755 0.407555,0.68075 0.237367,0.15675 0.738974,0.15675 0.206016,0 0.640443,-0.12092 0.438906,-0.1254 0.550872,-0.1254 0.264239,0 0.264239,0.26871 0,0.26872 -0.515043,0.51952 -0.510563,0.25081 -1.088306,0.25081 z m 3.291791,-6.66868 h 0.147795 q 0.214974,0 0.291111,0.0896 0.07614,0.0896 0.09853,0.22393 0.02239,0.13436 0.02239,0.60014 l -0.02239,0.94051 v 0.15675 l -0.009,0.23737 v 0.15675 l -0.02239,0.95395 v 0.15675 l -0.0045,0.15676 q 0,0.91811 0.01791,1.14205 0.02239,0.21945 0.143316,0.77928 0.120923,0.55983 0.120923,0.5643 0,0.25081 -0.107487,0.35382 -0.103009,0.0985 -0.376205,0.0985 h -0.07614 q -0.295589,0 -0.434426,-0.20602 -0.206017,-0.30007 -0.206017,-0.85542 v -0.28663 l 0.0045,-0.0761 0.009,-0.29111 0.0045,-0.0761 q 0,-0.0761 0,-0.15227 l 0.009,-0.3135 v -0.15676 l 0.009,-0.39859 v -0.15676 l 0.01344,-0.47921 v -0.15675 l 0.01344,-0.55535 q 0,-0.0806 0,-0.16123 l 0.009,-0.3135 v -0.15676 l 0.009,-0.39412 v -0.30902 l -0.02239,-0.58222 q 0,-0.28216 0.08061,-0.40756 0.08062,-0.1254 0.277675,-0.1254 z m 2.606563,4.35323 v 0.24632 q 0,0.66732 0.273196,1.04352 0.277675,0.37173 0.738974,0.37173 l 0.04479,-0.004 q 0.48817,0 0.770324,-0.42099 0.282154,-0.42547 0.282154,-1.20923 v -0.19706 q 0,-0.60909 -0.241846,-1.01217 -0.241846,-0.40308 -0.676273,-0.40308 h -0.12988 q -0.465778,0 -0.765846,0.43443 -0.295589,0.43443 -0.295589,1.15101 z m 3.063381,-0.0761 v 0.14332 q 0,1.02112 -0.55535,1.65261 -0.264239,0.30455 -0.676272,0.4613 -0.412034,0.15675 -0.828546,0.15675 h -0.147795 q -0.792717,0 -1.294324,-0.64044 -0.403076,-0.51505 -0.403076,-1.4466 v -0.22393 q 0.009,-0.14332 0.009,-0.37621 0,-0.21945 0.138838,-0.61805 0.273196,-0.79271 0.940511,-1.0883 0.403077,-0.17915 0.788239,-0.17915 h 0.143316 q 0.891247,0 1.43764,0.63597 0.447862,0.51952 0.447862,1.52273 z m 4.01285,0.0582 v -0.15227 q 0,-0.72106 -0.25976,-1.07487 -0.259761,-0.35381 -0.640444,-0.35381 h -0.08509 q -0.45682,0 -0.747931,0.3135 -0.286632,0.30903 -0.286632,0.8599 l -0.01344,0.13883 -0.009,0.18811 v 0.19258 l -0.0045,0.14331 v 0.13884 q 0,0.77928 0.143316,0.99426 0.210496,0.31798 0.689709,0.31798 h 0.04479 q 0.541914,0 0.855418,-0.45682 0.313504,-0.45682 0.313504,-1.24954 z m -2.445331,-2.0109 q 0.129881,0 0.268718,0.0717 0.138837,0.0672 0.188102,0.0672 0.04927,0 0.474735,-0.16571 0.42547,-0.17019 0.788238,-0.17019 h 0.09853 q 0.331419,0 0.640444,0.14779 0.309025,0.14332 0.523999,0.42547 0.403077,0.52848 0.403077,1.29433 v 0.3135 q 0,0.48817 -0.156752,0.96738 -0.156752,0.4837 -0.42547,0.77929 -0.550871,0.60909 -1.482425,0.60909 -0.232889,0 -0.438906,-0.0448 -0.201538,-0.0403 -0.277675,-0.0403 -0.219453,0 -0.219453,0.95395 0,0.55087 -0.120923,0.76585 -0.116444,0.21497 -0.376204,0.21497 h -0.08062 q -0.170187,0 -0.246324,-0.10301 -0.07166,-0.0985 -0.07166,-0.35381 v -0.094 l 0.0045,-0.0985 0.01792,-0.79719 0.02687,-1.0077 0.02687,-1.62574 q 0,-1.77353 0.01344,-1.83176 0.06718,-0.27767 0.420991,-0.27767 z m 6.458181,1.66157 q 0.286632,0 0.492649,-0.12988 0.111966,-0.0717 0.111966,-0.28663 v -0.0269 q 0,-0.32247 -0.19706,-0.54192 -0.19706,-0.22393 -0.559829,-0.22393 h -0.05374 q -0.407555,0 -0.75241,0.30455 -0.340375,0.30454 -0.340375,0.77032 v 0.0761 q 0,0.13883 0.210495,0.13883 l 0.04479,0.009 h 0.16123 l 0.02687,-0.004 0.246324,-0.0179 0.03135,-0.004 0.165709,-0.0134 q 0.03135,-0.004 0.07166,-0.009 0.04031,-0.004 0.161231,-0.0224 0.125401,-0.0179 0.179145,-0.0179 z m -0.237367,2.6827 h -0.103009 q -0.452341,-0.004 -0.824067,-0.16571 -0.712102,-0.31351 -0.962905,-1.07487 -0.138838,-0.42547 -0.138838,-0.8599 v -0.20154 q 0.0045,-0.45234 0.174667,-0.9002 0.349333,-0.90468 1.151007,-1.20027 0.376205,-0.13436 0.770324,-0.13436 h 0.09853 q 0.635965,0 1.056956,0.39412 0.420991,0.38964 0.420991,1.06591 v 0.0896 q 0,0.47474 -0.304547,0.66732 -0.232888,0.14779 -1.070392,0.26872 -0.833025,0.12092 -0.998734,0.17466 -0.268717,0.0851 -0.268717,0.24633 0,0.40755 0.407555,0.68075 0.237367,0.15675 0.738973,0.15675 0.206017,0 0.640444,-0.12092 0.438906,-0.1254 0.550871,-0.1254 0.264239,0 0.264239,0.26871 0,0.26872 -0.515042,0.51952 -0.510563,0.25081 -1.088306,0.25081 z m 2.826016,-3.71279 q 0,-0.30902 0.07614,-0.45682 0.07614,-0.15227 0.282154,-0.15227 0.206016,0 0.474734,0.1478 0.268718,0.14779 0.300068,0.14779 0.03583,0 0.152273,-0.0806 0.434427,-0.30455 0.770324,-0.30455 h 0.125402 q 0.206017,0 0.344854,0.11196 0.143316,0.11197 0.143316,0.31799 0,0.20154 -0.179145,0.29559 -0.07614,0.0403 -0.317982,0.0672 -0.241846,0.0269 -0.474735,0.11644 -0.22841,0.0896 -0.407555,0.34933 -0.25976,0.38069 -0.25976,1.48243 l -0.01792,0.50161 -0.009,0.28663 q 0,0.3986 -0.12988,0.5867 -0.125402,0.1881 -0.429949,0.1881 h -0.06718 q -0.268718,0 -0.32694,-0.2732 -0.0045,-0.0224 -0.0045,-0.85094 v -0.9002 l -0.0045,-0.0761 v -0.14779 l -0.0045,-0.0761 q 0,-0.0761 0,-0.15227 l -0.01791,-0.57774 -0.01792,-0.41652 z"
           id="text7"
           aria-label="Developer" /></g></g><g
       id="layer4"
       inkscape:label="logo"
       transform="matrix(0.31915112,0,0,0.31915112,161.10312,147.0323)"><g
         inkscape:groupmode="layer"
         id="layer5"
         inkscape:label="braces"
         transform="translate(-24.312846,-62.135184)" /><g
         inkscape:groupmode="layer"
         id="layer2"
         inkscape:label="ghi"><g
           inkscape:groupmode="layer"
           id="layer3"
           inkscape:label="g100"
           transform="translate(-24.312846,-62.135184)"
           style="display:inline;fill:#ff0000;fill-opacity:1"><g
             id="g29"><g
               id="g28"><path
                 id="39-0"
                 d="m 124.62004,113.12552 c 0,0 -1.81119,-6.33961 -1.81119,-6.33961 0,0 1.57537,-10.062977 1.57537,-10.062977 0.86648,-5.534623 1.63529,-10.460307 1.70855,-10.946007 0.0733,-0.485699 0.15726,-0.941963 0.18669,-1.013918 0.0491,-0.120101 0.0599,-0.114737 0.13005,0.06541 0.0876,0.224828 7.65168,20.067032 9.98226,26.185732 0.90127,2.36616 1.52794,4.09957 1.49406,4.13241 -0.0436,0.0423 -11.37349,4.31864 -11.44178,4.31864 -0.007,0 -0.82782,-2.85284 -1.82401,-6.33968"
                 stroke="#f1f2f2"
                 fill="#f1f2f2"
                 stroke-width="0.0654141"
                 style="fill:#ffffff;fill-opacity:1;stroke:none"
                 inkscape:label="sleeve-right" /><path
                 id="path1-2"
                 d="m 94.926607,110.09463 c 1.053363,-1.17648 3.147008,-3.81083 4.87381,-6.13258 6.508573,-8.751034 12.106123,-18.724986 15.593283,-27.784646 0.14195,-0.368804 0.27435,-0.670494 0.29417,-0.670494 0.0198,0 0.15235,0.239939 0.2945,0.533125 l 0.25838,0.533125 4.6117,3.073417 c 2.53643,1.690366 4.62229,3.082509 4.63524,3.09363 0.013,0.01112 -0.905,5.950722 -2.03994,13.19913 -1.59466,10.184913 -2.09377,13.238253 -2.19667,13.439983 -0.0733,0.14359 -0.24275,0.35141 -0.37672,0.46183 -0.49597,0.40883 -0.38823,0.40066 -5.27153,0.40066 h -4.44129 l -0.32099,-0.35115 c -0.19696,-0.21547 -0.4541,-0.41132 -0.66565,-0.50696 l -0.34473,-0.15581 h -3.13988 -3.13988 l -0.34565,0.18211 c -0.32988,0.17381 -0.86451,0.65264 -0.86451,0.77431 0,0.0324 -1.64601,0.0575 -3.772693,0.0575 h -3.77276 l 0.13181,-0.14718"
                 stroke="#f1f2f2"
                 fill="#f1f2f2"
                 stroke-width="0.0654141"
                 sodipodi:nodetypes="ccsscccscccscsccccssscc"
                 style="fill:#ffffff;fill-opacity:1;stroke:none"
                 inkscape:label="right" /><path
                 id="path2-4"
                 d="m 81.249626,117.31811 c -3.127056,-1.17569 -5.69613,-2.16939 -5.709082,-2.20818 -0.0172,-0.0517 11.076311,-29.271253 11.632985,-30.281508 0.03081,0.107933 0.379075,2.271505 0.77398,4.807938 0.394839,2.536432 1.160446,7.436538 1.701356,10.88916 0,0 0.983436,6.2774 0.983436,6.2774 0,0 -1.808766,6.33117 -1.808766,6.33117 -0.994818,3.48213 -1.82669,6.32901 -1.848538,6.3264 -0.02185,-0.003 -2.598314,-0.96669 -5.725371,-2.14238"
                 stroke="#f1f2f2"
                 fill="#f1f2f2"
                 stroke-width="0.0654141"
                 style="fill:#ffffff;fill-opacity:1;stroke:none"
                 inkscape:label="sleeve-left" /><path
                 id="7-8"
                 d="m 93.054978,110.12877 c -0.290046,-0.10237 -0.949682,-0.68351 -0.907817,-0.79975 0.01164,-0.0324 0.437228,-0.56976 0.945757,-1.19407 4.375551,-5.37214 9.103682,-12.289351 12.858062,-18.811335 2.93807,-5.104003 5.93097,-11.270788 7.74516,-15.958822 0.21227,-0.548562 0.40151,-0.997434 0.42055,-0.997565 0.019,-1.31e-4 0.23595,0.405829 0.48204,0.902126 0,0 0.44749,0.902388 0.44749,0.902388 0,0 -0.5394,1.40346 -0.5394,1.40346 -3.76373,9.792559 -9.77438,20.320504 -16.804234,29.433478 -1.610169,2.0873 -4.217249,5.24235 -4.319949,5.22796 -0.02028,-0.003 -0.167722,-0.0514 -0.327659,-0.10787"
                 stroke="#e6e7e8"
                 fill="#e6e7e8"
                 stroke-width="0.0654141"
                 style="fill:#ffffff;fill-opacity:1;stroke:none"
                 inkscape:label="collar-right" /><path
                 id="path3-3"
                 d="m 91.848349,107.77713 c -0.02093,-0.10152 -0.463459,-2.90746 -0.98337,-6.2354 -0.519912,-3.327944 -1.393714,-8.913394 -1.941753,-12.412068 -0.54804,-3.498674 -0.983959,-6.372251 -0.968849,-6.38553 0.01511,-0.01328 2.102737,-1.40732 4.63917,-3.097817 0,0 4.611695,-3.073679 4.611695,-3.073679 0,0 0.185318,-0.385681 0.185318,-0.385681 0.390392,-0.81264 0.291159,-0.909845 1.087118,1.065007 1.428252,3.543745 2.981902,6.890985 4.746582,10.225732 0.42833,0.809499 0.88184,1.666817 1.00764,1.90512 0,0 0.22875,0.433369 0.22875,0.433369 0,0 -0.58029,0.973035 -0.58029,0.973035 -3.02665,5.075416 -6.749755,10.521732 -10.234889,14.971722 -0.644133,0.82245 -1.614486,2.03778 -1.740408,2.17973 -0.01027,0.0116 -0.03578,-0.062 -0.05671,-0.16354"
                 stroke="#f1f2f2"
                 fill="#f1f2f2"
                 stroke-width="0.0654141"
                 style="fill:#ffffff;fill-opacity:1;stroke:none"
                 inkscape:label="left" /><path
                 id="12-9"
                 d="m 127.86582,121.67665 c -0.1182,-0.0402 -0.34113,-0.1842 -0.49545,-0.32 -0.28343,-0.24949 -0.62974,-0.80211 -0.55163,-0.88021 0.0508,-0.0508 11.51426,-4.35495 11.53552,-4.3312 0.0582,0.065 0.24196,0.72753 0.27205,0.98095 0.0429,0.36082 -0.10015,0.80564 -0.32628,1.01483 -0.27448,0.25394 -0.72584,0.43304 -4.58573,1.82008 -2.12707,0.76437 -4.07347,1.46816 -4.32531,1.56399 -0.51488,0.19591 -1.19387,0.26349 -1.52317,0.15156"
                 stroke="#d6d7d9"
                 fill="#d6d7d9"
                 stroke-width="0.0654141"
                 style="fill:#ffffff;fill-opacity:1;stroke:none"
                 inkscape:label="cuffs-right" /><path
                 id="path4-0"
                 d="m 104.41349,87.494047 c -1.27754,-2.384475 -2.80025,-5.539987 -3.95376,-8.193118 -0.480144,-1.104387 -1.738908,-4.22621 -1.978847,-4.90776 -0.07791,-0.221362 -0.06476,-0.263488 0.326547,-1.046626 0.22424,-0.448806 0.436967,-0.852281 0.472748,-0.896566 0.04618,-0.05724 0.26931,0.426565 0.769202,1.66806 1.61482,4.010278 3.47127,7.960964 5.61312,11.944945 0,0 0.45273,0.842011 0.45273,0.842011 0,0 -0.4891,0.87511 -0.4891,0.87511 -0.26898,0.481317 -0.51193,0.875045 -0.53986,0.875045 -0.0279,0 -0.33067,-0.522463 -0.67278,-1.161101"
                 stroke="#d6d7d9"
                 fill="#d6d7d9"
                 stroke-width="0.0654141"
                 style="fill:#ffffff;fill-opacity:1;stroke:none"
                 inkscape:label="collar-left" /><path
                 id="path5-5"
                 d="m 84.416782,121.6601 c -0.1619,-0.0456 -0.4857,-0.16438 -0.719556,-0.26414 -0.233855,-0.0998 -2.147218,-0.79622 -4.251917,-1.54776 -2.317361,-0.82749 -3.929754,-1.43807 -4.08786,-1.54796 -0.143584,-0.0998 -0.329098,-0.29803 -0.412305,-0.44044 -0.128604,-0.22011 -0.146593,-0.32301 -0.120035,-0.68671 0.02427,-0.33218 0.167984,-0.87904 0.270095,-1.02785 0.01688,-0.0245 11.482599,4.28174 11.532052,4.3312 0.07791,0.0779 -0.267871,0.63046 -0.550068,0.87883 -0.441741,0.38883 -0.998742,0.49107 -1.660406,0.30483"
                 stroke="#d6d7d9"
                 fill="#d6d7d9"
                 stroke-width="0.0654141"
                 style="fill:#ffffff;fill-opacity:1;stroke:none"
                 inkscape:label="cuffs-left" /><path
                 id="path8-2"
                 d="m 105.75925,83.994392 c -1.00842,-1.9358 -1.92278,-3.802589 -2.76479,-5.644519 -0.6285,-1.374874 -1.57001,-3.555912 -1.57001,-3.637025 0,-0.03101 2.38415,-0.05632 5.30293,-0.05632 0,0 5.30299,0 5.30299,0 0,0 -0.046,0.147182 -0.046,0.147182 -0.13476,0.431144 -1.4592,3.402254 -2.413,5.413018 -0.72871,1.536251 -2.79076,5.559481 -2.84964,5.559939 -0.0186,1.31e-4 -0.45181,-0.801912 -0.9625,-1.782273"
                 stroke="#f1f2f2"
                 fill="#f1f2f2"
                 stroke-width="0.0654141"
                 style="fill:#ffffff;fill-opacity:1"
                 inkscape:label="back" /><path
                 id="path13-2"
                 d="m 100.90598,73.463045 c -0.0317,-0.08111 -0.20762,-0.530181 -0.39091,-0.997892 -0.18329,-0.467711 -0.33329,-0.872428 -0.33335,-0.899444 -7e-5,-0.02702 2.94546,-0.04906 6.54566,-0.04906 6.20446,0 6.54396,0.006 6.50923,0.114475 -0.0202,0.06293 -0.1952,0.526584 -0.38895,1.030272 0,0 -0.35233,0.915798 -0.35233,0.915798 0,0 -5.76586,0.01668 -5.76586,0.01668 0,0 -5.76586,0.01675 -5.76586,0.01675 0,0 -0.0576,-0.147575 -0.0576,-0.147575"
                 stroke="#d6d7d9"
                 fill="#d6d7d9"
                 stroke-width="0.0654141"
                 style="fill:#ffffff;fill-opacity:1;stroke:none"
                 inkscape:label="collar-back" /><path
                 id="path15-7"
                 d="m 103.41958,134.76713 c -6.806663,-0.29103 -12.181741,-1.49759 -14.902707,-3.34541 -1.161951,-0.78902 -1.369313,-1.31221 -0.966624,-2.43877 0.547516,-1.53193 5.051344,-12.89227 5.200422,-13.11756 0.09642,-0.14567 0.249621,-0.29312 0.340416,-0.32766 0.175113,-0.0666 8.267953,-0.0918 8.267953,-0.0258 0,0.0203 -1.537626,2.14715 -3.416973,4.72617 -1.879348,2.57902 -3.498347,4.84784 -3.597777,5.04179 -0.273365,0.5332 -0.23693,0.91515 0.12154,1.27309 0.315361,0.31491 3.975412,2.46978 4.259702,2.50792 0.330603,0.0443 0.677363,-0.10578 0.881978,-0.38176 0.08949,-0.12075 1.55784,-2.90556 3.26299,-6.1885 0,0 3.10023,-5.96898 3.10023,-5.96898 0,0 0.75227,9.2e-4 0.75227,9.2e-4 0,0 0.75226,8.5e-4 0.75226,8.5e-4 0,0 3.09893,5.96812 3.09893,5.96812 1.70443,3.28242 3.17278,6.06684 3.26298,6.18759 0.20743,0.27762 0.55282,0.42611 0.88682,0.3813 0.17486,-0.0235 0.85124,-0.39222 2.16894,-1.18236 1.89184,-1.13448 2.27451,-1.42184 2.36315,-1.77501 0.0576,-0.22941 -0.0236,-0.6075 -0.19611,-0.91417 -0.081,-0.14391 -1.65805,-2.33692 -3.50456,-4.87335 -1.84651,-2.53643 -3.37105,-4.66317 -3.3878,-4.72617 -0.0288,-0.10813 0.19323,-0.11447 3.99582,-0.11447 2.41326,0 4.09251,0.0252 4.19148,0.0628 0.0908,0.0345 0.23869,0.17433 0.32864,0.31072 0.0899,0.13639 1.20689,2.91191 2.48227,6.1679 1.27538,3.25599 2.44034,6.2201 2.58876,6.58694 0.49309,1.21866 0.42846,1.80052 -0.2646,2.38376 -2.52054,2.12105 -8.07289,3.46263 -15.65981,3.78361 -1.75533,0.0743 -4.62805,0.0727 -6.41059,-0.004"
                 stroke="#f1f2f2"
                 fill="#f1f2f2"
                 stroke-width="0.0654141"
                 style="fill:#ffffff;fill-opacity:1;stroke:none"
                 inkscape:label="lower" /><path
                 id="path6"
                 d="m 104.04102,135.81546 c -7.519813,-0.25381 -13.489244,-1.61691 -16.367073,-3.73737 -0.620453,-0.45718 -1.063895,-0.96395 -1.204994,-1.37723 -0.23065,-0.67553 -0.09897,-1.81073 0.30169,-2.60021 0.06411,-0.12638 1.168166,-2.9229 2.453357,-6.21454 1.285191,-3.29164 2.411361,-6.13212 2.502613,-6.3122 0.09125,-0.18009 0.337276,-0.4925 0.546797,-0.69437 0,0 0.380906,-0.36698 0.380906,-0.36698 0,0 0.201149,-1.59087 0.201149,-1.59087 0.110615,-0.87498 0.186168,-1.62986 0.167918,-1.67748 -0.01825,-0.0476 -0.07366,-0.0866 -0.122979,-0.0866 -0.04932,0 -0.26702,-0.0886 -0.483802,-0.19697 -0.465749,-0.23274 -1.016863,-0.78752 -1.20519,-1.21323 -0.07254,-0.16406 -0.164975,-0.2873 -0.205335,-0.27383 -0.04036,0.0135 -0.789418,2.52466 -1.664462,5.58042 -1.032039,3.60399 -1.671004,5.72491 -1.818775,6.03694 -0.162554,0.34329 -0.354217,0.60723 -0.669382,0.92181 -0.572047,0.571 -0.983436,0.74265 -1.782535,0.74363 -0.636414,7.8e-4 -0.866803,-0.0544 -1.864302,-0.44711 -0.395756,-0.15581 -2.294401,-0.8456 -4.219211,-1.53298 -1.924811,-0.68737 -3.661556,-1.3279 -3.859433,-1.42341 -0.516379,-0.24923 -1.060494,-0.81427 -1.215264,-1.26203 -0.196046,-0.56701 -0.160134,-1.20061 0.11284,-1.99448 0.372925,-1.08443 12.815476,-33.676562 12.917784,-33.836826 0.05214,-0.0817 2.205829,-1.557053 4.785893,-3.27849 0,0 4.691043,-3.129935 4.691043,-3.129935 0,0 1.305469,-2.620817 1.305469,-2.620817 0.978988,-1.965367 1.343737,-2.638217 1.458539,-2.690548 0.105513,-0.04808 2.454599,-0.06973 7.559979,-0.06973 6.65386,0 7.42188,0.01053 7.5548,0.103682 0.0901,0.06312 0.65552,1.118385 1.44585,2.698659 0,0 1.29782,2.595044 1.29782,2.595044 0,0 4.68234,3.121496 4.68234,3.121496 2.57529,1.716794 4.72467,3.188415 4.77634,3.270314 0.20318,0.321772 13.01238,34.049161 13.10625,34.509411 0.23209,1.13814 -0.27684,2.10666 -1.37854,2.62344 -0.2209,0.10361 -1.99127,0.75474 -3.93407,1.44682 -1.9428,0.69215 -3.82293,1.37527 -4.17813,1.51814 -0.3552,0.14286 -0.86988,0.30541 -1.1437,0.36128 -1.44055,0.29377 -2.67551,-0.49807 -3.25468,-2.08684 -0.0568,-0.15575 -0.80224,-2.72483 -1.65655,-5.70909 -0.85431,-2.98425 -1.5842,-5.43617 -1.62188,-5.44873 -0.0377,-0.0126 -0.13639,0.11833 -0.2194,0.2909 -0.27631,0.57459 -0.919,1.11642 -1.64627,1.38802 -0.10375,0.0387 -0.17976,0.1163 -0.1795,0.18329 0,0.0638 0.0878,0.80479 0.19461,1.64654 0,0 0.19415,1.53043 0.19415,1.53043 0,0 0.35277,0.33387 0.35277,0.33387 0.19402,0.18362 0.4284,0.46634 0.5207,0.62824 0.0923,0.1619 1.22861,3.00251 2.52512,6.31246 1.2965,3.30995 2.45963,6.26831 2.58471,6.57412 0.57047,1.39463 0.42663,2.43857 -0.44881,3.25749 -3.09638,2.89654 -11.86285,4.54792 -22.27717,4.19645 m 5.78915,-1.0448 c 7.58692,-0.32098 13.13927,-1.66256 15.65981,-3.78361 0.69306,-0.58324 0.75769,-1.1651 0.2646,-2.38376 -0.14842,-0.36684 -1.31338,-3.33095 -2.58876,-6.58694 -1.27538,-3.25599 -2.39233,-6.03151 -2.48227,-6.1679 -0.09,-0.13639 -0.23785,-0.27618 -0.32864,-0.31072 -0.099,-0.0376 -1.77822,-0.0628 -4.19148,-0.0628 -3.80259,0 -4.0246,0.006 -3.99582,0.11447 0.0168,0.063 1.54129,2.18974 3.3878,4.72617 1.84651,2.53643 3.42358,4.72944 3.50456,4.87335 0.17256,0.30667 0.25367,0.68476 0.19611,0.91417 -0.0886,0.35317 -0.47131,0.64053 -2.36315,1.77501 -1.3177,0.79014 -1.99408,1.15887 -2.16894,1.18236 -0.334,0.0448 -0.67939,-0.10368 -0.88682,-0.3813 -0.0902,-0.12075 -1.55855,-2.90517 -3.26298,-6.18759 0,0 -3.09893,-5.96812 -3.09893,-5.96812 0,0 -0.75226,-8.5e-4 -0.75226,-8.5e-4 0,0 -0.75227,-9.2e-4 -0.75227,-9.2e-4 0,0 -3.10023,5.96898 -3.10023,5.96898 -1.70515,3.28294 -3.173503,6.06775 -3.26299,6.1885 -0.204615,0.27598 -0.551375,0.42611 -0.881978,0.38176 -0.28429,-0.0381 -3.944341,-2.19301 -4.259702,-2.50792 -0.35847,-0.35794 -0.394905,-0.73989 -0.12154,-1.27309 0.09943,-0.19395 1.718429,-2.46277 3.597777,-5.04179 1.879347,-2.57902 3.416973,-4.70582 3.416973,-4.72617 0,-0.066 -8.09284,-0.0408 -8.267953,0.0258 -0.09079,0.0345 -0.243995,0.18199 -0.340416,0.32766 -0.149078,0.22529 -4.652906,11.58563 -5.200422,13.11756 -0.402689,1.12656 -0.195327,1.64975 0.966624,2.43877 2.416005,1.64065 6.911395,2.77664 12.744047,3.2204 2.4563,0.18689 5.95098,0.23935 8.56925,0.12854 M 85.541447,121.67777 c 0.141229,-0.0423 0.38228,-0.18742 0.535741,-0.3225 0.282197,-0.24837 0.627976,-0.80093 0.550068,-0.87883 -0.04945,-0.0495 -11.515175,-4.35573 -11.532052,-4.3312 -0.102111,0.14881 -0.245826,0.69567 -0.270095,1.02785 -0.02656,0.3637 -0.0086,0.4666 0.120035,0.68671 0.08321,0.14241 0.268721,0.34062 0.412305,0.44044 0.158106,0.10989 1.770499,0.72047 4.08786,1.54796 2.104699,0.75154 4.018062,1.448 4.251917,1.54776 0.825723,0.35219 1.344718,0.43147 1.844221,0.28181 m 43.847543,-0.15268 c 0.25184,-0.0958 2.19824,-0.79962 4.32531,-1.56399 3.85989,-1.38704 4.31125,-1.56614 4.58573,-1.82008 0.22613,-0.20919 0.36913,-0.65401 0.32628,-1.01483 -0.0301,-0.25342 -0.21384,-0.91593 -0.27205,-0.98095 -0.0213,-0.0238 -11.4847,4.28037 -11.53552,4.3312 -0.0781,0.0781 0.2682,0.63072 0.55163,0.88021 0.15432,0.1358 0.37725,0.27984 0.49545,0.32 0.3293,0.11193 1.00829,0.0444 1.52317,-0.15156 m -40.565455,-8.391 c 0,0 1.808766,-6.33117 1.808766,-6.33117 0,0 -0.983436,-6.2774 -0.983436,-6.2774 -0.54091,-3.452622 -1.306517,-8.352728 -1.701356,-10.88916 -0.394905,-2.536433 -0.74317,-4.700005 -0.897874,-4.840645 -0.43278,1.042962 -11.526295,30.262535 -11.509091,30.314215 0.01799,0.054 11.254237,4.3291 11.434453,4.35056 0.02185,0.003 0.85372,-2.84427 1.848538,-6.3264 m 43.318535,4.20005 c 3.12693,-1.17209 5.71164,-2.15644 5.74376,-2.18758 0.0339,-0.0328 -0.59279,-1.76625 -1.49406,-4.13241 -2.33058,-6.1187 -9.89467,-25.9609 -9.98226,-26.185728 -0.0702,-0.180151 -0.0809,-0.185515 -0.13005,-0.06541 -0.0294,0.07196 -0.11342,0.528219 -0.18669,1.013918 -0.0733,0.4857 -0.84207,5.411384 -1.70855,10.946007 0,0 -1.57537,10.062973 -1.57537,10.062973 0,0 1.81119,6.33961 1.81119,6.33961 0.99619,3.48684 1.81701,6.33968 1.82401,6.33968 0.007,0 2.5711,-0.95897 5.69802,-2.13106 m -38.033467,-7.89366 c 6.037597,-7.02102 12.023377,-16.068905 16.331817,-24.68643 1.41759,-2.835375 3.00872,-6.427003 4.0664,-9.178844 0,0 0.5394,-1.40346 0.5394,-1.40346 0,0 -0.44749,-0.902388 -0.44749,-0.902388 -0.24609,-0.496297 -0.46301,-0.902257 -0.48204,-0.902126 -0.019,1.31e-4 -0.20828,0.449003 -0.42055,0.997565 -1.81419,4.688034 -4.80709,10.854819 -7.74516,15.958822 -3.75438,6.521984 -8.482511,13.439191 -12.858062,18.811331 -0.508529,0.62431 -0.934114,1.16169 -0.945757,1.19407 -0.04187,0.11624 0.617771,0.69738 0.907817,0.79975 0.159937,0.0564 0.307381,0.10506 0.327659,0.10787 0.02028,0.003 0.346957,-0.35546 0.725966,-0.79616 m 8.231647,0.74383 c 0,-0.12167 0.53463,-0.6005 0.86451,-0.77431 0,0 0.34565,-0.18211 0.34565,-0.18211 0,0 3.13988,0 3.13988,0 0,0 3.13988,0 3.13988,0 0,0 0.34473,0.15581 0.34473,0.15581 0.21155,0.0956 0.46869,0.29149 0.66565,0.50696 0,0 0.32099,0.35115 0.32099,0.35115 0,0 4.44129,0 4.44129,0 4.8833,0 4.77556,0.008 5.27153,-0.40066 0.13397,-0.11042 0.30346,-0.31824 0.37672,-0.46183 0.1029,-0.20173 0.60201,-3.25507 2.19667,-13.439979 1.13494,-7.248408 2.05289,-13.18801 2.03994,-13.19913 -0.013,-0.01112 -2.09881,-1.403264 -4.63524,-3.09363 0,0 -4.6117,-3.073417 -4.6117,-3.073417 0,0 -0.25838,-0.533125 -0.25838,-0.533125 -0.14215,-0.293186 -0.27468,-0.533125 -0.2945,-0.533125 -0.0198,0 -0.15222,0.30169 -0.29417,0.670494 -3.48716,9.05966 -9.08471,19.033612 -15.593283,27.784642 -1.726802,2.32175 -3.820447,4.9561 -4.87381,6.13258 0,0 -0.13181,0.14718 -0.13181,0.14718 0,0 3.77276,0 3.77276,0 2.126683,0 3.772693,-0.0251 3.772693,-0.0575 m -9.965514,-2.82072 c 3.859303,-4.75783 8.114364,-10.887461 11.505624,-16.574368 0,0 0.58029,-0.973035 0.58029,-0.973035 0,0 -0.22875,-0.433369 -0.22875,-0.433369 -0.1258,-0.238303 -0.57931,-1.095621 -1.00764,-1.90512 -1.76468,-3.334747 -3.31833,-6.681987 -4.746582,-10.225732 -0.795959,-1.974852 -0.696726,-1.877647 -1.087118,-1.065007 0,0 -0.185318,0.385681 -0.185318,0.385681 0,0 -4.611695,3.073679 -4.611695,3.073679 -2.536433,1.690497 -4.624059,3.084538 -4.63917,3.097817 -0.01511,0.01328 0.420809,2.886856 0.968849,6.38553 0.548039,3.498674 1.421841,9.084124 1.941753,12.412064 0.961587,6.15462 1.007246,6.43596 1.040084,6.39894 0.01027,-0.0116 0.221623,-0.27127 0.469673,-0.57708 M 105.62613,87.780103 c 0,0 0.4891,-0.87511 0.4891,-0.87511 0,0 -0.45273,-0.842011 -0.45273,-0.842011 -2.14185,-3.983981 -3.9983,-7.934667 -5.61312,-11.944945 -0.499892,-1.241495 -0.72302,-1.725297 -0.769202,-1.66806 -0.03578,0.04429 -0.248508,0.44776 -0.472748,0.896566 -0.391307,0.783138 -0.404455,0.825264 -0.326547,1.046626 0.492503,1.398946 2.029927,5.086929 3.013957,7.229961 1.07246,2.335611 3.47107,7.032018 3.59143,7.032018 0.0279,0 0.27088,-0.393728 0.53986,-0.875045 m 2.18837,-4.047629 c 0.9782,-1.888441 2.02921,-4.044359 2.75033,-5.641707 0.45326,-1.003976 1.36801,-3.122019 1.41956,-3.287059 0,0 0.046,-0.147182 0.046,-0.147182 0,0 -5.30299,0 -5.30299,0 -2.91878,0 -5.30293,0.02532 -5.30293,0.05632 0,0.175048 1.69338,3.956246 2.75668,6.155468 0.73441,1.519047 2.48895,4.908741 2.54062,4.908349 0.0186,-1.31e-4 0.51043,-0.92005 1.09275,-2.044191 m 5.03316,-11.071079 c 0.19375,-0.503688 0.3688,-0.967344 0.38895,-1.030272 0.0347,-0.108522 -0.30477,-0.114475 -6.50923,-0.114475 -3.6002,0 -6.54573,0.02204 -6.54566,0.04906 6e-5,0.02702 0.15006,0.431733 0.33335,0.899444 0.18329,0.467711 0.35925,0.916779 0.39091,0.997892 0,0 0.0576,0.147575 0.0576,0.147575 0,0 5.76586,-0.01675 5.76586,-0.01675 0,0 5.76586,-0.01668 5.76586,-0.01668 0,0 0.35233,-0.915798 0.35233,-0.915798"
                 stroke="#3a322b"
                 fill="#3a322b"
                 stroke-width="0.0654141"
                 inkscape:label="outline-original"
                 style="display:inline;fill:#000000;fill-opacity:1;stroke:none;stroke-opacity:1" /><g
                 inkscape:groupmode="layer"
                 id="layer6"
                 inkscape:label="belt"
                 style="display:inline;fill:#282828;fill-opacity:1"><rect
                   style="display:inline;fill:#282828;fill-opacity:1;stroke:none;stroke-width:0.366927;stroke-opacity:1"
                   id="rect23"
                   width="7.408"
                   height="5.3280001"
                   x="103.01585"
                   y="110.20618"
                   rx="1.5"
                   ry="1.5"
                   inkscape:label="bow" /><path
                   id="rect23-8"
                   style="display:inline;fill:#282828;fill-opacity:1;stroke-width:0.409545"
                   d="m 94.011848,111.18919 h 7.983002 v 3.328 h -8.356004 z"
                   sodipodi:nodetypes="ccccc"
                   inkscape:label="left" /><path
                   id="rect23-8-3"
                   style="display:inline;fill:#282828;fill-opacity:1;stroke-width:0.409545"
                   d="m 119.40585,111.18918 h -7.983 v 3.328 h 8.35601 z"
                   sodipodi:nodetypes="ccccc"
                   inkscape:label="right" /><path
                   style="display:inline;fill:#282828;fill-opacity:1;stroke:none;stroke-width:0.3;stroke-opacity:1"
                   d="m 70.823282,63.764849 c 0,0 3.717687,2.19335 3.717687,2.19335 0,0 6.153885,-11.565749 6.153885,-11.565749 -0.561958,-0.07924 -1.123917,-0.15848 -1.529189,-0.339614 -0.405273,-0.181134 -0.65386,-0.464163 -0.902447,-0.747191 z"
                   id="path24"
                   sodipodi:nodetypes="ccczcc"
                   inkscape:original-d="m 70.823282,63.764849 3.717687,2.19335 6.153885,-11.565749 c 0,0 -1.123917,-0.15848 -1.685875,-0.23772 -0.248587,-0.283028 -0.745761,-0.849085 -0.745761,-0.849085 z"
                   inkscape:path-effect="#path-effect24"
                   transform="matrix(-1,0,0,1,189.22644,62.157965)"
                   inkscape:label="low-right" /><path
                   style="display:inline;fill:#282828;fill-opacity:1;stroke:none;stroke-width:0.3;stroke-opacity:1"
                   d="m 70.823282,63.764849 c 0,0 3.717687,2.19335 3.717687,2.19335 0,0 6.153885,-11.565749 6.153885,-11.565749 -0.561958,-0.07924 -1.123917,-0.15848 -1.529189,-0.339614 -0.405273,-0.181134 -0.65386,-0.464163 -0.902447,-0.747191 z"
                   id="path26"
                   sodipodi:nodetypes="ccczcc"
                   inkscape:original-d="m 70.823282,63.764849 3.717687,2.19335 6.153885,-11.565749 c 0,0 -1.123917,-0.15848 -1.685875,-0.23772 -0.248587,-0.283028 -0.745761,-0.849085 -0.745761,-0.849085 z"
                   inkscape:path-effect="#path-effect27"
                   transform="translate(24.312846,62.135184)"
                   inkscape:label="low-left" /></g></g></g></g></g></g></g></svg>
